<?xml version="1.0" standalone="no"?>
<!DOCTYPE svg PUBLIC "-//W3C//DTD SVG 1.1//EN" "http://www.w3.org/Graphics/SVG/1.1/DTD/svg11.dtd" >
<svg>
<metadata>
Created by FontForge 20090914 at Wed May 10 00:04:01 2017
 By www-data
</metadata>
<defs>
<font id="Futura2-Normal" horiz-adv-x="291" >
  <font-face 
    font-family="Futura2-Normal"
    font-weight="500"
    font-stretch="normal"
    units-per-em="1000"
    panose-1="0 0 0 0 0 0 0 0 0 0"
    ascent="800"
    descent="-200"
    x-height="465"
    cap-height="748"
    bbox="-50.0626 -268.001 1110 1031"
    underline-thickness="50"
    underline-position="-55"
    unicode-range="U+0020-U+F002"
  />
<missing-glyph 
 />
    <glyph glyph-name=".notdef" 
 />
    <glyph glyph-name="space" unicode=" " 
 />
    <glyph glyph-name="space" unicode="&#xa0;" 
 />
    <glyph glyph-name="exclam" unicode="!" horiz-adv-x="323" 
d="M157 94c20 -2 34.3311 -8.33301 42.998 -19s13.334 -22.667 14.001 -36v-2.5v-2.5c-1.33301 -14.667 -7.16602 -28 -17.499 -40s-23.5 -18 -39.5 -18c-19.333 0 -33.833 5.83301 -43.5 17.5s-14.5 24.834 -14.5 39.501c-0.666992 15.333 4 29.166 14 41.499
s24.667 18.5 44 18.5v1zM101.998 748h95v-575h-95v575v0z" />
    <glyph glyph-name="quotedbl" unicode="&#x22;" horiz-adv-x="441" 
d="M87 756h102l-24 -323h-63l-15 323v0zM244 756h102l-15 -323h-63l-24 323v0z" />
    <glyph glyph-name="numbersign" unicode="#" horiz-adv-x="575" 
d="M181 520l32 197h78l-31 -197h118l39 197h79l-39 -197h94v-79h-110l-24 -150h95v-78h-110l-40 -213h-79l40 213h-118l-40 -213h-78l39 213h-102v78h118l23 150h-102v79h118v0zM362 441h-118l-24 -150h119l23 150v0z" />
    <glyph glyph-name="dollar" unicode="$" horiz-adv-x="575" 
d="M276 772l-0.000976562 86.0029h55v-86c35.333 -8.66699 66.833 -20.834 94.5 -36.501s51.167 -43.167 70.5 -82.5l-79 -47l-6 10c-2 3.33301 -4 6.33301 -6 9c-9.33301 14 -19.166 25.167 -29.499 33.5s-25.166 14.166 -44.499 17.499v-227l30.5 -16.5
c9.66699 -5 18.834 -10.167 27.501 -15.5c44 -25.333 76.833 -52.666 98.5 -81.999s32.5 -70.333 32.5 -123c0 -53.333 -12.5 -95.666 -37.5 -126.999s-52.833 -55.333 -83.5 -72c-12 -6.66699 -23.833 -12.334 -35.5 -17.001s-22.5 -8.66699 -32.5 -12v-86h-55v86
c-51.333 0 -96 15.167 -134 45.5s-65.667 63.833 -83 100.5c-6 11.333 -10.667 22.666 -14 33.999s-5.33301 22 -6 32l95 24c8 -43.333 21.833 -77.833 41.5 -103.5s53.167 -38.5 100.5 -38.5v300c-11.333 4 -22 8.16699 -32 12.5s-19.333 8.83301 -28 13.5
c-44.667 22.667 -76.167 46.334 -94.5 71.001s-27.5 55 -27.5 91c0 11.333 1.5 25.166 4.5 41.499s8.5 33.166 16.5 50.499c11.333 24 29.666 46.5 54.999 67.5s60.666 36.167 105.999 45.5v1zM330.999 346.003v-267.003c26.667 6.66699 49 21.834 67 45.501
s29.333 48.834 34 75.501c0.666992 0.666992 1 1.33398 1 2.00098v2c0.666992 2.66699 1 5.16699 1 7.5v6.5v4.5v4.5c-2 24.667 -12 48 -30 70s-42.333 38 -73 48v1zM275.999 472v213.001c-28 -8.66699 -50.833 -21.5 -68.5 -38.5s-26.5 -41.167 -26.5 -72.5
c0 -26.667 7.33301 -46.334 22 -59.001s32 -24 52 -34c3.33301 -1.33301 6.83301 -2.83301 10.5 -4.5s7.16699 -3.5 10.5 -5.5v1z" />
    <glyph glyph-name="percent" unicode="%" horiz-adv-x="709" 
d="M559 772l47 -24l-449 -756l-47 24l449 756v0zM339 165c0 58.667 18.333 102.167 55 130.5s78.667 42.5 126 42.5h1.5h1.5c42.667 -0.666992 81.667 -14.667 117 -42s53 -74 53 -140c0 -46.667 -16 -85.667 -48 -117s-73.667 -47 -125 -47s-94.333 15 -129 45
s-52 72.333 -52 127v1zM630 165c0 34 -8.33301 59.166 -25 75.499s-35 26.833 -55 31.5l-15.5 2c-5 0.666992 -9.83301 1 -14.5 1c-39.333 0 -67.666 -12 -84.999 -36s-26 -51.667 -26 -83c0 -2.66699 0.166992 -5.66699 0.5 -9s0.833008 -6.33301 1.5 -9
c3.33301 -21.333 13.666 -40.666 30.999 -57.999s43.333 -26 78 -26c35.333 0 62.5 10.5 81.5 31.5s28.5 47.167 28.5 78.5v1zM16 605.999c0 58.667 18.333 102.168 55 130.501s78.667 42.5 126 42.5h1.5h1.5c42.667 -0.666992 81.667 -14.667 117 -42s53 -74 53 -140
c0 -46.667 -16 -85.834 -48 -117.501s-73.667 -47.5 -125 -47.5s-94.333 15.167 -129 45.5s-52 72.833 -52 127.5v1zM307 606c0 34 -8.33301 59.166 -25 75.499s-35 26.833 -55 31.5l-15.5 2c-5 0.666992 -9.83301 1 -14.5 1c-39.333 0 -67.5 -12 -84.5 -36
s-25.5 -51.667 -25.5 -83c0 -2.66699 0.166992 -5.66699 0.5 -9s0.833008 -6.33301 1.5 -9c3.33301 -21.333 13.5 -40.666 30.5 -57.999s42.833 -26 77.5 -26c35.333 0 62.5 10.5 81.5 31.5s28.5 47.167 28.5 78.5v1z" />
    <glyph glyph-name="ampersand" unicode="&#x26;" horiz-adv-x="693" 
d="M614 331l55.0029 -62.999l-94 -103l134 -165h-111l-86 94c-26.667 -35.333 -57.167 -61.666 -91.5 -78.999s-69.833 -27.666 -106.5 -30.999c-4 0 -8.16699 -0.166992 -12.5 -0.5s-8.83301 -0.5 -13.5 -0.5c-46 0 -88.833 10.333 -128.5 31s-69.167 49.667 -88.5 87
c-6.66699 15.333 -12 30.666 -16 45.999s-6 30.333 -6 45c0 42 15.167 83 45.5 123s77.5 79 141.5 117c-21.333 17.333 -38.833 35.833 -52.5 55.5s-23.834 39.5 -30.501 59.5c-2.66699 9.33301 -4.83398 18.666 -6.50098 27.999s-2.5 18.333 -2.5 27
c0 43.333 15.667 81 47 113s75.333 48 132 48c57.333 0 101.166 -15.167 131.499 -45.5s45.5 -66.166 45.5 -107.499c0 -6.66699 -0.333008 -13.334 -1 -20.001s-2 -13.334 -4 -20.001c-6.66699 -29.333 -21 -57.5 -43 -84.5s-52 -50.167 -90 -69.5l158 -180l94 95v0z
M457.003 165.001c-7.33301 6.66699 -18.4971 18.666 -33.4971 35.999l-47.5 56c-0.666992 0.666992 -1.33398 1.5 -2.00098 2.5s-1.33398 1.83301 -2.00098 2.5l-49.5 59l-31.5 40c-8 -4 -16.333 -8.5 -25 -13.5s-17.667 -10.5 -27 -16.5
c-24.667 -17.333 -47.167 -37.666 -67.5 -60.999s-30.5 -49 -30.5 -77c0 -13.333 3 -27 9 -41s16.333 -28.333 31 -43c15.333 -14.667 31.666 -25.667 48.999 -33s35.333 -11 54 -11c4 0 7.83301 0.166992 11.5 0.5s7.5 0.833008 11.5 1.5c26.667 3.33301 53 13.5 79 30.5
s49.667 39.167 71 66.5v1zM307.006 480c39.333 24 66.833 46.8359 82.5 68.5029s23.5 41.167 23.5 58.5c0.666992 17.333 -4.66602 32.166 -15.999 44.499s-24 21.166 -38 26.499c-4.66699 2 -9.5 3.5 -14.5 4.5s-9.5 1.5 -13.5 1.5c-33.333 0 -57.5 -7.33301 -72.5 -22
s-22.5 -32.667 -22.5 -54c0 -8 1 -16.167 3 -24.5s4.66699 -16.5 8 -24.5c6 -14.667 14.167 -28.834 24.5 -42.501s22.166 -26.167 35.499 -37.5v1z" />
    <glyph glyph-name="quotesingle" unicode="'" horiz-adv-x="276" 
d="M126 772l79 -32l-134 -268l-55 24l110 276v0z" />
    <glyph glyph-name="parenleft" unicode="(" 
d="M150 803l78.001 -47.002c-26.667 -62.667 -47.5 -132 -62.5 -208s-22.833 -154.667 -23.5 -236c0 -24.667 0.666992 -49.667 2 -75s3.66602 -50.666 6.99902 -75.999c6 -50 15.333 -99.833 28 -149.5s29 -98.167 49 -145.5l-71 -55c-34.667 54.667 -61 125 -79 211
s-27.333 176.667 -28 272c0 14 0.166992 28.167 0.5 42.5s0.833008 28.833 1.5 43.5c4.66699 75.333 15 149.333 31 222s38.333 139.334 67 200.001v1z" />
    <glyph glyph-name="parenright" unicode=")" 
d="M55 756l70.999 55.001c32.667 -64 57.667 -132.833 75 -206.5s28 -148.167 32 -223.5c0.666992 -12 1.16699 -23.833 1.5 -35.5s0.5 -23.5 0.5 -35.5c0.666992 -94.667 -8.5 -185.667 -27.5 -273s-46.167 -162.666 -81.5 -225.999l-71 63
c26 56.667 45.833 116.667 59.5 180s21.834 127.333 24.501 192c0.666992 9.33301 1.16699 18.666 1.5 27.999s0.5 18.666 0.5 27.999c0 83.333 -7.5 164 -22.5 242s-36.167 148.333 -63.5 211v1z" />
    <glyph glyph-name="asterisk" unicode="*" horiz-adv-x="433" 
d="M157 591l-94 47l39 63l87 -55v102h71l-8 -102l87 55l39 -55l-95 -55l95 -48l-39 -55l-87 47l8 -94h-71v94l-87 -47l-39 55l94 48v0z" />
    <glyph glyph-name="plus" unicode="+" horiz-adv-x="575" 
d="M244 299v205h95v-205h212v-86h-212v-213h-95v213h-205v86h205v0z" />
    <glyph glyph-name="comma" unicode="," 
d="M165 110l79 -23l-134 -276l-55 24l110 275v0z" />
    <glyph glyph-name="hyphen" unicode="-" horiz-adv-x="331" 
d="M55 362h221v-79h-221v79v0z" />
    <glyph glyph-name="period" unicode="." 
d="M142 102c20 -2.66699 34.333 -9.33301 43 -20s13 -22.667 13 -36v-1.5v-1.5c-0.666992 -14.667 -6 -28.167 -16 -40.5s-23.333 -18.5 -40 -18.5c-19.333 0 -34 5.83301 -44 17.5s-15 24.834 -15 39.501c-0.666992 15.333 4 29.166 14 41.499s25 18.5 45 18.5v1z" />
    <glyph glyph-name="slash" unicode="/" horiz-adv-x="551" 
d="M441 874l79 -31l-418 -969l-71 32l410 968v0z" />
    <glyph glyph-name="zero" unicode="0" horiz-adv-x="575" 
d="M24 378c-0.666992 1.33301 -0.998047 3.50195 -0.998047 6.50195v8.5c0 18.667 2.5 44 7.5 76s13.833 65.333 26.5 100c18 50.667 45 97 81 139s84.333 63 145 63c80.667 0 143.667 -35.167 189 -105.5s71 -147.5 77 -231.5c0.666992 -6.66699 1.16699 -13.5 1.5 -20.5
s0.5 -13.833 0.5 -20.5c0 -20 -1 -41 -3 -63s-5 -44.333 -9 -67c-13.333 -70 -39.333 -134 -78 -192s-95.334 -87 -170.001 -87c-69.333 0 -122.5 22.167 -159.5 66.5s-63.833 93.166 -80.5 146.499c-10.667 35.333 -17.834 69.166 -21.501 101.499s-5.5 58.5 -5.5 78.5v1z
M457.002 386.002c0 82.667 -12.999 148.667 -38.999 198s-54.333 81.666 -85 96.999c-6 3.33301 -11.833 5.83301 -17.5 7.5s-11.167 2.83398 -16.5 3.50098c-1.33301 0 -2.5 0.166992 -3.5 0.5s-2.16699 0.5 -3.5 0.5h-3.5h-3.5c-42.667 0 -75.834 -19 -99.501 -57
s-40.834 -79.667 -51.501 -125c-6 -24.667 -10.167 -48.834 -12.5 -72.501s-3.5 -44.167 -3.5 -61.5c0 -16.667 1.33301 -36.667 4 -60s7 -47 13 -71c10.667 -44 27.834 -84.333 51.501 -121s55.834 -55 96.501 -55c59.333 0 103.166 30.833 131.499 92.5
s42.5 135.834 42.5 222.501v1z" />
    <glyph glyph-name="one" unicode="1" horiz-adv-x="575" 
d="M244 669h-126l55 95h166v-764h-95v669v0z" />
    <glyph glyph-name="two" unicode="2" horiz-adv-x="575" 
d="M47 0l338.999 416.998c20 23.333 34.333 45.833 43 67.5s13 41.834 13 60.501c0.666992 38 -12.833 68.667 -40.5 92s-58.167 36.333 -91.5 39h-5.5h-5.5c-42 0 -75.5 -12 -100.5 -36s-39.167 -50.333 -42.5 -79v-4v-4v-2.5c0 -1 0.333008 -1.83301 1 -2.5v-3v-3l-102 1
c4 58.667 26.667 110 68 154s97.333 66 168 66h6h6c73.333 0.666992 132.333 -20.166 177 -62.499s67 -92.833 67 -151.5c0 -15.333 -1.66699 -30.833 -5 -46.5s-8.66602 -31.167 -15.999 -46.5c-5.33301 -12 -11.833 -24 -19.5 -36s-16.5 -23.667 -26.5 -35l-252 -298h307
v-87h-488v0z" />
    <glyph glyph-name="three" unicode="3" horiz-adv-x="575" 
d="M276 441c47.333 -0.666992 82.6611 8.49805 105.994 27.498s35 46.167 35 81.5c0.666992 2.66699 1 5.16699 1 7.5v7.5c0 40 -12.667 70.5 -38 91.5s-53.666 31.5 -84.999 31.5h-2h-2c-26.667 -0.666992 -51.667 -9.66699 -75 -27s-37.666 -43.666 -42.999 -78.999l-94 1
c4 48 23.333 90 58 126s89.334 54.333 164.001 55h5.5h5.5c2 -0.666992 3.83301 -1 5.5 -1h5.5h1.5h1.5c46.667 -4.66699 89.334 -24 128.001 -58s58 -80.333 58 -139c0 -37.333 -5 -67.333 -15 -90s-27.333 -43.667 -52 -63l-13.5 -10
c-4.33301 -3.33301 -9.16602 -6.66602 -14.499 -9.99902c38.667 -18 67 -42.833 85 -74.5s27 -65.167 27 -100.5v-6.5v-7.5c-4 -55.333 -26.833 -105.833 -68.5 -151.5s-97.834 -68.5 -168.501 -68.5h-4.5h-4.5c-67.333 0 -122.166 19.667 -164.499 59
s-63.5 83.333 -63.5 132v7v6l95 1c3.33301 -40 18 -71.167 44 -93.5s58.333 -33.5 97 -33.5c44 0 78.167 15.5 102.5 46.5s37.833 65.167 40.5 102.5v4v4c0 36.667 -11.333 69.667 -34 99s-58.667 44 -108 44h-4h-4c-1.33301 -0.666992 -2.66602 -1 -3.99902 -1h-4v80v0z
" />
    <glyph glyph-name="four" unicode="4" horiz-adv-x="575" 
d="M472 787v-598h87v-79h-87v-110h-94v110h-370l464 677v0zM378 512l-213 -323h213v323v0z" />
    <glyph glyph-name="five" unicode="5" horiz-adv-x="575" 
d="M220 748h307.998v-79h-237l-47 -157c7.33301 0.666992 14.833 1.16699 22.5 1.5s14.834 0.5 21.501 0.5c71.333 0.666992 130.833 -22 178.5 -68s73.167 -108.333 76.5 -187c0 -70.667 -24.5 -133.167 -73.5 -187.5s-111.167 -83.5 -186.5 -87.5h-6
c-2 0 -3.66699 -0.333008 -5 -1h-5.5h-5.5c-65.333 0 -115.166 13.667 -149.499 41s-62.833 57.333 -85.5 90l-1.5 1.5c-0.333008 0.333008 -0.5 0.833008 -0.5 1.5l63 64c4.66699 -6 10 -13.667 16 -23s13.667 -19.333 23 -30c13.333 -14.667 30.5 -28 51.5 -40
s48.5 -18 82.5 -18h2h2h1h2c56 0 99.167 19.167 129.5 57.5s46.166 80.5 47.499 126.5v1.5v1.5c0 41.333 -13 79.5 -39 114.5s-66.667 55.167 -122 60.5c-17.333 0 -32.666 -1.16699 -45.999 -3.5s-26.333 -5.83301 -39 -10.5c-13.333 -6 -26.833 -13.5 -40.5 -22.5
s-29.5 -20.5 -47.5 -34.5l110 387v0z" />
    <glyph glyph-name="six" unicode="6" horiz-adv-x="575" 
d="M378 772l71 -48.001l-213 -267c13.333 4.66699 26.833 8.5 40.5 11.5s27.5 4.5 41.5 4.5h4h5c54 -2 103.5 -23.667 148.5 -65s67.5 -101.666 67.5 -180.999c0 -70.667 -23.833 -128.834 -71.5 -174.501s-105.167 -68.5 -172.5 -68.5c-78.667 0 -141.667 23.833 -189 71.5
s-71 104.834 -71 171.501c0 38.667 9 75.667 27 111s38 69.333 60 102l8 12l8 12l236 308v0zM449 235.999c0 38.667 -14.165 73.166 -42.498 103.499s-64.166 45.5 -107.499 45.5c-42.667 0 -79.834 -13.167 -111.501 -39.5s-49.5 -63.166 -53.5 -110.499v-3.5v-3.5
c-0.666992 -1.33301 -1 -2.5 -1 -3.5v-3.5c0 -41.333 14 -76.833 42 -106.5s64.333 -44.834 109 -45.501h4c1.33301 0 2.66602 0.333008 3.99902 1h3h4c47.333 0 84.166 16.833 110.499 50.5s39.5 71.834 39.5 114.501v1z" />
    <glyph glyph-name="seven" unicode="7" horiz-adv-x="575" 
d="M433 669h-386v87h551l-480 -772l-71 47l386 638v0z" />
    <glyph glyph-name="eight" unicode="8" horiz-adv-x="575" 
d="M173 386c-42.667 22.667 -70.3359 49.834 -83.0029 81.501s-19 67.167 -19 106.5c4 47.333 26.333 89.333 67 126s94.334 55 161.001 55c54 0 97.5 -14 130.5 -42s55.167 -59 66.5 -93c2.66699 -8 4.83398 -16.167 6.50098 -24.5s2.5 -16.5 2.5 -24.5v-3v-3
c-0.666992 -1.33301 -1 -2.5 -1 -3.5v-3.5c0 -9.33301 -0.666992 -18.833 -2 -28.5s-3.66602 -19.834 -6.99902 -30.501c-6 -20 -15.833 -39.333 -29.5 -58s-32.5 -34.667 -56.5 -48c43.333 -20 75.166 -45.667 95.499 -77s30.5 -68.666 30.5 -111.999
c0 -62.667 -22.167 -116.334 -66.5 -161.001s-106.166 -67 -185.499 -67c-69.333 0 -123.5 19.167 -162.5 57.5s-62.5 80.833 -70.5 127.5l-2 17.5c-0.666992 5.66699 -1 11.5 -1 17.5c0 46 8.33301 81.5 25 106.5s42 47.833 76 68.5c4 2 8 4.16699 12 6.5l13 7.5v1z
M440.998 205c0 39.333 -11.167 69 -33.5 89s-46.833 33 -73.5 39c-7.33301 2 -14.666 3.33301 -21.999 4s-14.333 1 -21 1s-13.5 -0.333008 -20.5 -1s-14.167 -2 -21.5 -4c-26.667 -6 -51.167 -19 -73.5 -39s-33.5 -50 -33.5 -90c0 -43.333 13.167 -77.833 39.5 -103.5
s62.833 -38.5 109.5 -38.5c47.333 0 84.166 13.833 110.499 41.5s39.5 61.167 39.5 100.5v1zM416.998 551c0 38.667 -12.167 69.166 -36.5 91.499s-54.166 33.5 -89.499 33.5c-42.667 0 -75.667 -13.167 -99 -39.5s-35 -55.166 -35 -86.499s12.667 -60.166 38 -86.499
s57.333 -39.5 96 -39.5c39.333 0 70.166 12.167 92.499 36.5s33.5 54.166 33.5 89.499v1z" />
    <glyph glyph-name="nine" unicode="9" horiz-adv-x="575" 
d="M339 307c0.666992 -1.33301 0.166016 -2.33203 -1.50098 -2.99902s-3.83398 -1.33398 -6.50098 -2.00098c-5.33301 -1.33301 -12.666 -2.66602 -21.999 -3.99902s-20 -2 -32 -2c-12.667 0 -26 0.833008 -40 2.5s-28.667 4.83398 -44 9.50098
c-34.667 11.333 -66.667 32.666 -96 63.999s-46 80.333 -50 147c0 67.333 22.333 126.166 67 176.499s106.334 75.5 185.001 75.5c76 0 137 -22.333 183 -67s69 -98.667 69 -162v-7.5v-7.5c0 -16.667 -3.16699 -35 -9.5 -55s-14.833 -40 -25.5 -60
c-7.33301 -14 -15.333 -28 -24 -42s-17.667 -27.333 -27 -40l-252 -330l-79 39l205 268v0zM456.999 535.001c0 38.667 -14.502 73.167 -43.502 103.5s-67.167 45.5 -114.5 45.5c-46.667 0 -84.5 -14.333 -113.5 -43s-43.5 -66.667 -43.5 -114
c0 -5.33301 0.333008 -10.833 1 -16.5l2 -17.5c6.66699 -30.667 22.334 -59 47.001 -85s60.334 -39 107.001 -39c50 0 87.667 14.833 113 44.5s40 62.5 44 98.5c0 3.33301 0.166992 7 0.5 11s0.5 7.66699 0.5 11v1z" />
    <glyph glyph-name="colon" unicode=":" 
d="M142 94c20 -2 34.333 -8.5 43 -19.5s13 -23.167 13 -36.5v-1.5v-1.5c-0.666992 -14.667 -6 -28.167 -16 -40.5s-23.333 -18.5 -40 -18.5c-19.333 0 -34 5.83301 -44 17.5s-15 24.834 -15 39.501c-0.666992 15.333 4 29.166 14 41.499s25 18.5 45 18.5v1zM142 472
c20 -2 34.333 -8.49805 43 -19.498s13 -23.167 13 -36.5v-1.5v-1.5c-0.666992 -14.667 -6 -28.334 -16 -41.001s-23.333 -19 -40 -19c-19.333 0 -34 6 -44 18s-15 25.333 -15 40c-0.666992 15.333 4 29.166 14 41.499s25 18.5 45 18.5v1z" />
    <glyph glyph-name="semicolon" unicode=";" 
d="M150 118l78 -24l-134 -275l-55 24l111 275v0zM181 480c20 -2.66699 34.332 -9.33105 42.999 -19.998s13.334 -22.667 14.001 -36v-1.5v-1.5c-0.666992 -14.667 -6.16699 -28.334 -16.5 -41.001s-23.833 -19 -40.5 -19c-19.333 0 -34 6 -44 18s-15 25.333 -15 40
c-0.666992 15.333 4 29.166 14 41.499s25 18.5 45 18.5v1z" />
    <glyph glyph-name="less" unicode="&#x3c;" horiz-adv-x="575" 
d="M39 283l504 205v-94l-378 -150l386 -142v-94l-512 197v78v0z" />
    <glyph glyph-name="equal" unicode="=" horiz-adv-x="575" 
d="M24 213h519v-87h-519v87v0zM24 386h519v-87h-519v87v0z" />
    <glyph glyph-name="greater" unicode="&#x3e;" horiz-adv-x="575" 
d="M425 260l-394 149v95l512 -205v-71l-512 -212v94l394 150v0z" />
    <glyph glyph-name="question" unicode="?" horiz-adv-x="457" 
d="M228 94c20 -2 34.3311 -8.33301 42.998 -19s13.334 -22.667 14.001 -36v-2.5v-2.5c-1.33301 -14.667 -7.16602 -28 -17.499 -40s-23.5 -18 -39.5 -18c-19.333 0 -33.833 5.83301 -43.5 17.5s-14.5 24.834 -14.5 39.501c-0.666992 15.333 4 29.166 14 41.499
s24.667 18.5 44 18.5v1zM46.998 559c-0.666992 4 -1.16699 8.16309 -1.5 12.4961s-0.5 8.83301 -0.5 13.5c0 55.333 18.833 100.166 56.5 134.499s79.834 51.5 126.501 51.5c50.667 0 89.167 -12.5 115.5 -37.5s44.5 -52.833 54.5 -83.5c4 -12 6.83301 -23.833 8.5 -35.5
s2.5 -22.5 2.5 -32.5c0 -42.667 -11 -75.5 -33 -98.5s-46.333 -40.167 -73 -51.5c-20 -8.66699 -39.167 -15.167 -57.5 -19.5s-31.833 -8.16602 -40.5 -11.499c-14.667 -8 -25.667 -17.833 -33 -29.5s-11.666 -23.5 -12.999 -35.5v-3.5v-3.5
c-0.666992 -18 4.83301 -34.167 16.5 -48.5s26.834 -21.5 45.501 -21.5h2h2h1h2c20.667 0 36.667 7.16699 48 21.5s18.666 30.166 21.999 47.499c0 2.66699 0.166992 5.5 0.5 8.5s0.5 5.83301 0.5 8.5l87 1c0.666992 -2.66699 1 -5 1 -7v-6
c0 -8.66699 -1.16699 -18.167 -3.5 -28.5s-5.83301 -20.833 -10.5 -31.5c-10.667 -23.333 -27.667 -44.666 -51 -63.999s-54.666 -29 -93.999 -29c-42.667 0 -79.834 11.833 -111.501 35.5s-49.5 66.834 -53.5 129.501c0 36.667 12.5 65.667 37.5 87s52.5 38.333 82.5 51
c9.33301 4 18.5 7.66699 27.5 11s17.5 6.33301 25.5 9c27.333 9.33301 47.5 21.5 60.5 36.5s20.5 30.5 22.5 46.5c0.666992 2 1 3.83301 1 5.5v5.5c0.666992 22.667 -6.83301 42.834 -22.5 60.501s-34.167 26.5 -55.5 26.5h-2.5h-3.5
c-2.66699 0 -5.33398 -0.166992 -8.00098 -0.5s-5.33398 -0.5 -8.00098 -0.5c-20 -3.33301 -38.167 -13.166 -54.5 -29.499s-24.5 -42.166 -24.5 -77.499v-8.5c0 -3 0.333008 -6.16699 1 -9.5l-95 1v0z" />
    <glyph glyph-name="at" unicode="@" horiz-adv-x="803" 
d="M606 567l-55.002 -298.999c-0.666992 -5.33301 -1.16699 -10.333 -1.5 -15s-0.5 -8.66699 -0.5 -12c0 -9.33301 1.33301 -16.333 4 -21s6.33398 -7 11.001 -7c6 0 13.333 3.16699 22 9.5s17.667 15.166 27 26.499c14 18 27.167 40.167 39.5 66.5s20.166 53.5 23.499 81.5
c0 2 0.166992 3.83301 0.5 5.5s0.5 3.5 0.5 5.5v4.5c0 1.66699 0.333008 3.16699 1 4.5v4.5v4.5c0 12 -0.833008 24.667 -2.5 38s-4.16699 26.666 -7.5 39.999c-12.667 46.667 -38.834 89.667 -78.501 129s-97.167 59 -172.5 59c-74 0 -141.667 -29.5 -203 -88.5
s-95.666 -123.833 -102.999 -194.5c0 -4 -0.166992 -8 -0.5 -12s-0.5 -8 -0.5 -12c3.33301 -120 37 -205.5 101 -256.5s134.333 -76.5 211 -76.5c34 0 67.5 4.33301 100.5 13s63.5 20.667 91.5 36l71 -54c-16.667 -13.333 -36.334 -24.5 -59.001 -33.5
s-45.667 -15.833 -69 -20.5c-26.667 -6 -52.5 -10.333 -77.5 -13s-45.833 -4 -62.5 -4h-6h-6c-20 0 -41.167 2.16699 -63.5 6.5s-44.833 10.5 -67.5 18.5c-61.333 24 -117.333 65.5 -168 124.5s-76 137.833 -76 236.5v19.5c0 6.33301 0.333008 12.833 1 19.5
c8 102 50.667 189.167 128 261.5s163.333 108.5 258 108.5c17.333 0 35.5 -1.66699 54.5 -5s38.5 -8.66602 58.5 -15.999c56.667 -20.667 108.5 -57.5 155.5 -110.5s70.5 -124.833 70.5 -215.5c0 -14 -1.16699 -28.5 -3.5 -43.5s-5.5 -30.167 -9.5 -45.5
c-13.333 -46.667 -36.166 -89.334 -68.499 -128.001s-73.5 -58 -123.5 -58c-23.333 0 -39.666 5.5 -48.999 16.5s-14 26.5 -14 46.5c-10.667 -16.667 -24.334 -30.167 -41.001 -40.5s-34 -18.166 -52 -23.499c-8.66699 -2 -17.167 -3.66699 -25.5 -5s-16.166 -2 -23.499 -2
c-52.667 0 -93.5 21.833 -122.5 65.5s-43.5 91.834 -43.5 144.501v1.5v1.5c0.666992 54 17.5 103.667 50.5 149s84.833 69 155.5 71c34.667 0 61.334 -5.33301 80.001 -16s36 -25.334 52 -44.001c0 -0.666992 0.166992 -1.16699 0.5 -1.5l1.5 -1.5l15 56h71v0z
M495.998 362.001c1.33301 4.66699 2.16797 9.66699 2.50098 15s0.5 10.333 0.5 15c0 36.667 -10 63 -30 79s-42.333 24 -67 24h-2.5c-1 0 -1.83301 0.333008 -2.5 1h-2.5h-2.5c-4 0 -7.83301 -0.166992 -11.5 -0.5s-7.5 -1.16602 -11.5 -2.49902
c-27.333 -6 -52.333 -21.833 -75 -47.5s-34 -56.5 -34 -92.5c0 -42.667 8.16699 -74.334 24.5 -95.001s42.166 -31 77.499 -31c31.333 0 59.5 11.667 84.5 35s41.5 56.333 49.5 99v1z" />
    <glyph glyph-name="A" unicode="A" horiz-adv-x="701" 
d="M346 787l363 -787h-103l-86 189h-339l-87 -189h-102l354 787v0zM346 575l-133 -299h267l-134 299v0z" />
    <glyph glyph-name="B" unicode="B" horiz-adv-x="535" 
d="M55 748l94.999 -0.000976562c12 -0.666992 24.5 -1 37.5 -1s26.167 -0.666992 39.5 -2c50 -2.66699 96 -14.667 138 -36s64.667 -66.333 68 -135c0 -43.333 -7.83301 -78.833 -23.5 -106.5s-39.167 -47.5 -70.5 -59.5c3.33301 0 7 -0.333008 11 -1
s7.66699 -1.66699 11 -3c36 -9.33301 68.833 -31.666 98.5 -66.999s44.5 -79.666 44.5 -132.999c0 -66.667 -26.167 -117.334 -78.5 -152.001s-118.166 -52 -197.499 -52h-173v748v0zM156.999 353.999l-0.00292969 -275c10 -1.33301 19.667 -2.5 29 -3.5
s18.333 -1.5 27 -1.5c47.333 0 84.333 7.16699 111 21.5s46.334 30.166 59.001 47.499c6.66699 10 11.5 19.667 14.5 29s4.5 17.333 4.5 24v6v7c0.666992 50.667 -19.166 87.334 -59.499 110.001s-102.166 34 -185.499 34v1zM156.996 676.999v-252.001
c5.33301 -1.33301 10.833 -2 16.5 -2h16.5c48.667 0 85.667 9.16699 111 27.5s38 48.833 38 91.5v2.5v2.5c0 6.66699 -0.166992 14.167 -0.5 22.5s-1.5 16.833 -3.5 25.5c-5.33301 20.667 -18.5 39.334 -39.5 56.001s-59.5 25 -115.5 25h-11h-12v1z" />
    <glyph glyph-name="C" unicode="C" horiz-adv-x="661" 
d="M630 150l-0.000976562 -102.998c-15.333 -10.667 -31.333 -19.667 -48 -27s-33.667 -13.333 -51 -18c-23.333 -6 -46.166 -10.5 -68.499 -13.5s-42.5 -4.5 -60.5 -4.5c-98.667 0 -178.5 30.667 -239.5 92s-100.833 128.666 -119.5 201.999c-4 16 -7 31.833 -9 47.5
s-3 30.834 -3 45.501v3.5v3.5v3.5v3.5c2.66699 97.333 26.5 173 71.5 227s94.167 93.333 147.5 118c33.333 15.333 65.5 26 96.5 32s57.167 9 78.5 9c43.333 0 81.5 -4 114.5 -12s63.167 -20 90.5 -36v-109c-5.33301 4 -11 7.83301 -17 11.5s-11.667 7.5 -17 11.5
c-28.667 17.333 -57 30.166 -85 38.499s-55.333 12.5 -82 12.5c-83.333 0 -154.666 -31.333 -213.999 -94s-89 -132.334 -89 -209.001c0 -95.333 31 -170.833 93 -226.5s132 -83.5 210 -83.5c6 0 11.833 0.166992 17.5 0.5s11.5 0.833008 17.5 1.5
c28.667 3.33301 57.167 10.833 85.5 22.5s55.166 28.167 80.499 49.5v1z" />
    <glyph glyph-name="D" unicode="D" horiz-adv-x="661" 
d="M63 748h142c137.333 -0.666992 245.5 -27 324.5 -79s120.5 -146.667 124.5 -284c0 -9.33301 -0.333008 -18.833 -1 -28.5s-1.66699 -19.167 -3 -28.5c-10 -82.667 -45.333 -158 -106 -226s-158 -102 -292 -102h-189v748v0zM165 669l-0.000976562 -582.003h103
c72.667 -0.666992 129.334 16.833 170.001 52.5s69.667 74.834 87 117.501c9.33301 22 16 43.5 20 64.5s6 39.5 6 55.5c0 8.66699 -0.333008 17.334 -1 26.001s-1.66699 17.334 -3 26.001c-9.33301 60 -37.333 114.833 -84 164.5s-119.667 74.5 -219 74.5l-79 1v0z" />
    <glyph glyph-name="E" unicode="E" horiz-adv-x="520" 
d="M63 748h409v-87h-307v-196h300v-87h-300v-284h307v-94h-409v748v0z" />
    <glyph glyph-name="F" unicode="F" horiz-adv-x="472" 
d="M71 748h362v-87h-268v-196h260v-87h-260v-378h-94v748v0z" />
    <glyph glyph-name="G" unicode="G" horiz-adv-x="780" 
d="M449 386l307 0.000976562v-24c0 -106.667 -35.5 -195.334 -106.5 -266.001s-149.167 -108.334 -234.5 -113.001h-6.5h-7.5h-11c-4 0 -8 0.333008 -12 1c-86.667 5.33301 -156.5 31.5 -209.5 78.5s-91.833 98.5 -116.5 154.5c-12.667 27.333 -21.834 54.333 -27.501 81
s-8.5 50.667 -8.5 72v7.5v7.5c7.33301 102.667 32.833 180.334 76.5 233.001s90.834 89.667 141.501 111c31.333 13.333 61.833 22.333 91.5 27s55.167 7 76.5 7c19.333 0 39.5 -1.5 60.5 -4.5s42.167 -7.5 63.5 -13.5c34 -10 67.667 -24.5 101 -43.5
s63.333 -43.167 90 -72.5l-63 -70c-24 30.667 -58.5 59.167 -103.5 85.5s-97.167 39.5 -156.5 39.5c-86.667 -4 -155.667 -34.167 -207 -90.5s-77 -125.833 -77 -208.5c0 -78.667 22.833 -144.834 68.5 -198.501s95.834 -89.167 150.501 -106.5
c10.667 -3.33301 21.5 -5.83301 32.5 -7.5s21.833 -2.5 32.5 -2.5c63.333 0 120.166 22.333 170.499 67s77.5 98.334 81.5 161.001l-197 1v87v0z" />
    <glyph glyph-name="H" unicode="H" horiz-adv-x="677" 
d="M55 748h95v-299h362v299h94v-748h-94v370h-362v-370h-95v748v0z" />
    <glyph glyph-name="I" unicode="I" horiz-adv-x="228" 
d="M63 748h94v-748h-94v748v0z" />
    <glyph glyph-name="J" unicode="J" horiz-adv-x="362" 
d="M213 748h94.002v-535c0 -82.667 -19 -141.667 -57 -177s-79.667 -54.333 -125 -57c-2.66699 -0.666992 -5.33398 -1 -8.00098 -1h-8c-23.333 0 -46 3.33301 -68 10s-40.667 15.667 -56 27l46 72c13.333 -9.33301 26.666 -16.166 39.999 -20.499s26.333 -6.5 39 -6.5
c28.667 0 53 11.667 73 35s30 59.666 30 108.999v544v0z" />
    <glyph glyph-name="K" unicode="K" horiz-adv-x="598" 
d="M63 748h94v-331l323 331h118l-330 -339l346 -409h-134l-283 346l-40 -39v-307h-94v748v0z" />
    <glyph glyph-name="L" unicode="L" horiz-adv-x="386" 
d="M71 748h94v-669h229v-79h-323v748v0z" />
    <glyph glyph-name="M" unicode="M" horiz-adv-x="850" 
d="M417 181l260 599l158 -780h-103l-86 496l-229 -504l-228 496l-87 -488h-94l149 780l260 -599v0z" />
    <glyph glyph-name="N" unicode="N" horiz-adv-x="787" 
d="M63 787l575 -590v551h94v-779l-567 574v-543h-102v787v0z" />
    <glyph glyph-name="O" unicode="O" horiz-adv-x="827" 
d="M24 386c11.333 121.333 55.665 214.501 132.998 279.501s169.333 97.5 276 97.5c93.333 0 172.833 -29.5 238.5 -88.5s109.834 -124.167 132.501 -195.5c4.66699 -16 8.33398 -31.833 11.001 -47.5s4 -31.167 4 -46.5c0 -118 -36.833 -214.333 -110.5 -289
s-173.5 -112 -299.5 -112h-6h-6c-98.667 -0.666992 -177.5 27.666 -236.5 84.999s-98.833 120.666 -119.5 189.999c-6 18.667 -10.333 37.334 -13 56.001s-4 36.667 -4 54v8.5v7.5v1zM723.999 378.001c-5.33301 82.667 -27.498 145.334 -66.498 188.001
s-81.5 72.334 -127.5 89.001c-16.667 6.66699 -33.334 11.5 -50.001 14.5s-32.334 5.16699 -47.001 6.5h-3.5h-3.5h-3.5h-3.5c-82.667 0.666992 -152.5 -28.5 -209.5 -87.5s-87.5 -126.833 -91.5 -203.5v-4v-4v-5v-4c-0.666992 -75.333 24.666 -142.833 75.999 -202.5
s128.333 -91.5 231 -95.5h6h7c78.667 -0.666992 139.667 19.666 183 60.999s73 86.666 89 135.999c4.66699 16 8.33398 31.833 11.001 47.5s4 30.834 4 45.501v4v5c-0.666992 1.33301 -1 2.66602 -1 3.99902v4v1z" />
    <glyph glyph-name="P" unicode="P" horiz-adv-x="496" 
d="M71 748l125.999 -0.00195312c14.667 -0.666992 34.167 -1.66699 58.5 -3s49.833 -5.33301 76.5 -12c38.667 -11.333 74.334 -32.166 107.001 -62.499s49 -78.166 49 -143.499c0 -75.333 -21.167 -127.833 -63.5 -157.5s-88.833 -47.5 -139.5 -53.5
c-11.333 -1.33301 -22.5 -2.33301 -33.5 -3s-21.833 -1 -32.5 -1c-9.33301 0 -18.5 0.166992 -27.5 0.5s-17.833 0.833008 -26.5 1.5v-314h-94v748v0zM164.999 660.998l0.000976562 -267c7.33301 -1.33301 14.333 -2 21 -2h19c62 0 109 10.333 141 31s48 57.667 48 111
c0 50 -18.833 82.833 -56.5 98.5s-78.834 24.5 -123.501 26.5c-8.66699 0.666992 -17 1 -25 1h-24v1z" />
    <glyph glyph-name="Q" unicode="Q" horiz-adv-x="827" 
d="M630 55c-23.333 -20 -51.8359 -36.833 -85.5029 -50.5s-76.167 -20.5 -127.5 -20.5c-105.333 0 -192.666 34 -261.999 102s-111.333 143.333 -126 226c-1.33301 9.33301 -2.5 18.833 -3.5 28.5s-1.5 19.167 -1.5 28.5c0 122 40.333 218.167 121 288.5
s182 105.5 304 105.5c20.667 0 43 -2.83301 67 -8.5s48.333 -14.5 73 -26.5c52 -24 100.667 -60.667 146 -110s73.333 -111.333 84 -186c0.666992 -4 1.16699 -7.83301 1.5 -11.5s0.5 -7.16699 0.5 -10.5v-10.5v-11.5c0.666992 -61.333 -11.666 -117.5 -36.999 -168.5
s-55.666 -90.5 -90.999 -118.5l126 -117h-118l-71 71v0zM566.997 118l-165 165.001h118l118 -118c23.333 26.667 43.5 57.5 60.5 92.5s25.5 80.167 25.5 135.5c0 86.667 -31 154.5 -93 203.5s-130.667 75.5 -206 79.5c-6 0 -12.167 -0.166992 -18.5 -0.5
s-12.5 -0.833008 -18.5 -1.5c-65.333 -8.66699 -125.333 -38.834 -180 -90.501s-82 -120.5 -82 -206.5c0 -76 27.833 -145.667 83.5 -209s124.167 -95 205.5 -95c24 0 48.833 3.5 74.5 10.5s51.5 18.167 77.5 33.5v1z" />
    <glyph glyph-name="R" unicode="R" horiz-adv-x="543" 
d="M71 748l211.999 0.000976562c54.667 -4 98.667 -21.833 132 -53.5s55.333 -65.834 66 -102.501c2 -8.66699 3.66699 -17.167 5 -25.5s2 -16.5 2 -24.5c0 -66.667 -18.667 -118 -56 -154s-81.666 -58 -132.999 -66l244 -322h-118l-220 315h-40v-315h-94v748v0z
M164.999 661.001l0.000976562 -275c72 -0.666992 128.167 7.83301 168.5 25.5s60.833 51.5 61.5 101.5v3.5v3.5c-0.666992 1.33301 -1 2.5 -1 3.5v3.5v1.5v1.5c-0.666992 32.667 -14.834 62.5 -42.501 89.5s-80.167 40.833 -157.5 41.5h-7.5h-6.5
c-2.66699 -0.666992 -5.16699 -1 -7.5 -1h-7.5v1z" />
    <glyph glyph-name="S" unicode="S" horiz-adv-x="535" 
d="M409 614c-6.66699 10 -13.667 19.0049 -21 27.0049s-14.666 14.667 -21.999 20c-13.333 10 -26.5 16.333 -39.5 19s-24.833 4 -35.5 4c-38 0 -68.5 -10.833 -91.5 -32.5s-34.5 -45.834 -34.5 -72.501c0 -17.333 5.66699 -34.166 17 -50.499s29.333 -30.166 54 -41.499
c11.333 -5.33301 28.833 -12.833 52.5 -22.5s48.5 -21.5 74.5 -35.5c29.333 -14.667 56.833 -31.834 82.5 -51.501s42.5 -40.834 50.5 -63.501c4.66699 -14 8.16699 -28 10.5 -42s3.5 -27.667 3.5 -41c0 -65.333 -22 -122.833 -66 -172.5s-98.667 -74.5 -164 -74.5h-6h-6
c-58.667 0 -111.5 21.667 -158.5 65s-70.5 92.333 -70.5 147l87 24c8 -50.667 26.167 -88 54.5 -112s58.833 -36 91.5 -36c31.333 -0.666992 61 9.66602 89 30.999s46.667 52.333 56 93c1.33301 5.33301 2.33301 10.5 3 15.5s1 9.83301 1 14.5
c0 35.333 -13 63.666 -39 84.999s-54.333 39.333 -85 54l-14.5 6l-14.5 6c-3.33301 1.33301 -6.5 2.66602 -9.5 3.99902s-5.83301 2.66602 -8.5 3.99902c-44.667 18 -85.667 40.667 -123 68s-56 70.333 -56 129c0 10.667 1.83301 22.667 5.5 36s9.16699 27 16.5 41
c14 28 36.167 53.667 66.5 77s69.166 35 116.499 35c39.333 0 72 -4.33301 98 -13s50.333 -24.667 73 -48l20 -23c6.66699 -8 13.667 -17 21 -27l-79 -46v0z" />
    <glyph glyph-name="T" unicode="T" horiz-adv-x="457" 
d="M173 661h-181v87h457v-87h-173v-661h-103v661v0z" />
    <glyph glyph-name="U" unicode="U" horiz-adv-x="669" 
d="M520 748l94.001 -0.000976562v-472c0 -85.333 -25.333 -155.333 -76 -210s-117 -82 -199 -82h-4h-4h-4h-4c-74 6 -130.167 27 -168.5 63s-64.833 75.333 -79.5 118c-6 16.667 -10.5 33 -13.5 49s-5.16699 31 -6.5 45v489h95v-449
c0 -7.33301 0.166992 -14.166 0.5 -20.499s0.833008 -12.833 1.5 -19.5c6 -45.333 22.667 -87.333 50 -126s70.333 -59.667 129 -63c55.333 0 100.666 19 135.999 57s53 92.333 53 163v458v0z" />
    <glyph glyph-name="V" unicode="V" horiz-adv-x="638" 
d="M-16 748h110l221 -551l228 551h111l-339 -787l-331 787v0z" />
    <glyph glyph-name="W" unicode="W" horiz-adv-x="1024" 
d="M520 764l212 -551l213 535h102l-315 -779l-212 543l-213 -543l-323 779h103l220 -535l213 551v0z" />
    <glyph glyph-name="X" unicode="X" horiz-adv-x="575" 
d="M236 394l-205 354h103l157 -276l158 276h110l-213 -362l229 -386h-110l-174 299l-181 -299h-110l236 394v0z" />
    <glyph glyph-name="Y" unicode="Y" horiz-adv-x="575" 
d="M228 339l-244 409h126l173 -315l174 315h118l-244 -409v-339h-103v339v0z" />
    <glyph glyph-name="Z" unicode="Z" horiz-adv-x="551" 
d="M394 661h-331v87h488l-386 -661h386v-87h-543l386 661v0z" />
    <glyph glyph-name="bracketleft" unicode="[" horiz-adv-x="307" 
d="M63 811h197v-79h-110v-842h110v-79h-197v1000v0z" />
    <glyph glyph-name="backslash" unicode="\" horiz-adv-x="551" 
d="M24 866h86l410 -866h-87l-409 866v0z" />
    <glyph glyph-name="bracketright" unicode="]" horiz-adv-x="307" 
d="M157 717h-94v78h189v-992h-189v79h94v835v0z" />
    <glyph glyph-name="asciicircum" unicode="^" horiz-adv-x="575" 
d="M228 748h111l204 -441h-102l-158 354l-165 -354h-94l204 441v0z" />
    <glyph glyph-name="underscore" unicode="_" horiz-adv-x="504" 
d="M-8 -102h504v-79h-504v79v0z" />
    <glyph glyph-name="grave" unicode="`" horiz-adv-x="362" 
d="M79 677l78 47l134 -165l-47 -31l-165 149v0z" />
    <glyph glyph-name="a" unicode="a" horiz-adv-x="559" 
d="M417 472l95 -0.000976562v-472h-95v79c-15.333 -24.667 -34.833 -45.334 -58.5 -62.001s-59.167 -25 -106.5 -25c-66.667 0 -120.167 20.833 -160.5 62.5s-60.5 101.834 -60.5 180.501c0 78 22.667 139.333 68 184s95.333 67.334 150 68.001h1.5h1.5
c10.667 0 22.5 -1 35.5 -3s26.167 -5.33301 39.5 -10c17.333 -6 34 -14.833 50 -26.5s29.333 -27.167 40 -46.5v71v0zM417 243.999c0 38.667 -10.6689 74.501 -32.002 107.501s-57.666 49.5 -108.999 49.5c-47.333 0 -84.166 -13.833 -110.499 -41.5
s-39.5 -69.167 -39.5 -124.5c0 -46.667 13.5 -85.834 40.5 -117.501s58.167 -47.5 93.5 -47.5c51.333 0 90.333 15.167 117 45.5s40 72.833 40 127.5v1z" />
    <glyph glyph-name="b" unicode="b" horiz-adv-x="559" 
d="M55 0l0.00292969 874h95v-472c14.667 20 32.167 36.833 52.5 50.5s41.166 23.167 62.499 28.5c6.66699 2 13.667 3.5 21 4.5s14.333 1.5 21 1.5c12.667 0 26.5 -1.16699 41.5 -3.5s30.167 -6.16602 45.5 -11.499c37.333 -12.667 71.5 -36 102.5 -70
s46.5 -84.333 46.5 -151c0 -75.333 -14.333 -132 -43 -170s-60.334 -64.333 -95.001 -79c-16 -6.66699 -31.833 -11.334 -47.5 -14.001s-29.834 -4 -42.501 -4c-39.333 0 -72.833 8.5 -100.5 25.5s-49.167 37.167 -64.5 60.5v-70h-95v0zM441.003 252
c0 38.667 -10.832 73.1631 -32.499 103.496s-58.167 45.5 -109.5 45.5c-42.667 0 -78.167 -14.833 -106.5 -44.5s-42.5 -70.167 -42.5 -121.5c0 -9.33301 0.666992 -19.666 2 -30.999s3.33301 -22.666 6 -33.999c7.33301 -27.333 21 -52.166 41 -74.499
s50.667 -33.5 92 -33.5c43.333 0 79.166 16.833 107.499 50.5s42.5 79.834 42.5 138.501v1z" />
    <glyph glyph-name="c" unicode="c" horiz-adv-x="441" 
d="M402 126l-0.00195312 -118c-18 -9.33301 -37.5 -16.333 -58.5 -21s-42.167 -7 -63.5 -7h-8h-8c-60 3.33301 -115 25 -165 65s-75 100.667 -75 182c0 87.333 25.5 152.333 76.5 195s108.833 64 173.5 64c23.333 0.666992 46.333 -1.66602 69 -6.99902s44.667 -13 66 -23
v-117c-8 10 -16.5 18.5 -25.5 25.5s-17.833 12.833 -26.5 17.5c-18.667 9.33301 -36.167 14.833 -52.5 16.5s-28.5 2.5 -36.5 2.5c-51.333 -4 -89.5 -22.833 -114.5 -56.5s-38.167 -70.167 -39.5 -109.5v-1.5v-1.5c0 -40.667 12.5 -77.834 37.5 -111.501
s61.5 -50.5 109.5 -50.5h3.5h3.5c6.66699 0 20.834 1.5 42.501 4.5s44.834 13.833 69.501 32.5c4 2.66699 7.83301 5.5 11.5 8.5s7.16699 6.16699 10.5 9.5v1z" />
    <glyph glyph-name="d" unicode="d" horiz-adv-x="559" 
d="M402 874l93.9961 0.000976562v-874h-87v79c-10 -17.333 -21 -31.833 -33 -43.5s-24 -21.167 -36 -28.5c-16.667 -8.66699 -32.667 -14.667 -48 -18s-28.666 -5 -39.999 -5h-6h-6c-58.667 -0.666992 -104.667 15.166 -138 47.499s-57 68.166 -71 107.499
c-5.33301 15.333 -9.16602 30.5 -11.499 45.5s-3.5 29.167 -3.5 42.5c0 84.667 21.5 147.834 64.5 189.501s90.5 64.834 142.5 69.501c3.33301 0.666992 6.83301 1 10.5 1h10.5c8 0 16.333 -0.5 25 -1.5s17.334 -2.5 26.001 -4.5c20.667 -5.33301 40.834 -14.333 60.501 -27
s35.167 -30.334 46.5 -53.001v473v0zM401.996 244.001c0 50.667 -11.834 90.667 -35.501 120s-59.167 44 -106.5 44c-44.667 0 -78.5 -14.167 -101.5 -42.5s-37.833 -59.5 -44.5 -93.5c-1.33301 -7.33301 -2.33301 -14.833 -3 -22.5s-1 -15.167 -1 -22.5
c0 -9.33301 1 -19.833 3 -31.5s5.33301 -23.5 10 -35.5c8.66699 -24.667 23.834 -47.167 45.501 -67.5s52.167 -30.5 91.5 -30.5c44.667 0 77.5 14.167 98.5 42.5s34.167 59.5 39.5 93.5c1.33301 7.33301 2.33301 14.833 3 22.5s1 15.167 1 22.5v1z" />
    <glyph glyph-name="e" unicode="e" horiz-adv-x="488" 
d="M394 157l77.999 -39.001c-3.33301 -7.33301 -7.16602 -14.333 -11.499 -21l-13.5 -21c-16.667 -23.333 -39.667 -44.5 -69 -63.5s-71.333 -28.5 -126 -28.5c-63.333 0 -114.5 23.667 -153.5 71s-61.167 99.666 -66.5 156.999c0 4 -0.166992 8 -0.5 12s-0.5 8 -0.5 12v7.5
v7.5c4 63.333 24.5 119.833 61.5 169.5s92.833 74.5 167.5 74.5c64 0 112.5 -18.167 145.5 -54.5s54.833 -76.166 65.5 -119.499c3.33301 -13.333 5.83301 -26.833 7.5 -40.5s2.5 -26.5 2.5 -38.5v-12c0 -4 -0.333008 -7.66699 -1 -11l-354 1
c0 -43.333 13.833 -79.166 41.5 -107.499s61.167 -42.5 100.5 -42.5c4.66699 0 9.5 0.333008 14.5 1s10.167 1.66699 15.5 3c19.333 4.66699 37.833 14 55.5 28s31.167 32 40.5 54v1zM385.999 290.999c-4 34.667 -17.168 64.165 -39.501 88.498s-51.166 36.5 -86.499 36.5
c-7.33301 0 -15 -0.833008 -23 -2.5s-16 -4.16699 -24 -7.5c-19.333 -7.33301 -37.333 -20.166 -54 -38.499s-27.667 -44.166 -33 -77.499l260 1v0z" />
    <glyph glyph-name="f" unicode="f" horiz-adv-x="276" 
d="M79 386l-39.999 0.000976562v79h40v228c0 9.33301 0.333008 21.666 1 36.999s2.66699 31 6 47c6 26.667 18.5 51.167 37.5 73.5s49.833 33.5 92.5 33.5c11.333 0 23 -1 35 -3s25.333 -4.66699 40 -8v-93c-10.667 6 -21 10.667 -31 14s-19.667 5 -29 5
c-18.667 0 -34.334 -7.33301 -47.001 -22s-19 -37.667 -19 -69v-243h126v-79h-126v-386h-86v386v0z" />
    <glyph glyph-name="g" unicode="g" horiz-adv-x="551" 
d="M417 394v70.999h95v-465c0 -108 -20.667 -178.667 -62 -212s-86.666 -51.666 -135.999 -54.999c-6.66699 0 -13.167 -0.166992 -19.5 -0.5s-12.5 -0.5 -18.5 -0.5c-66.667 0 -120.167 19.667 -160.5 59s-60.5 90.666 -60.5 153.999h87
c0 -7.33301 0.5 -16.166 1.5 -26.499s3.5 -21.166 7.5 -32.499c7.33301 -18.667 20.666 -35.834 39.999 -51.501s50 -23.5 92 -23.5c3.33301 0 6.5 0.166992 9.5 0.5s6.16699 0.5 9.5 0.5c28.667 3.33301 55 14.833 79 34.5s36 52.5 36 98.5v118
c-2.66699 -4.66699 -5.5 -9.16699 -8.5 -13.5s-6.16699 -8.5 -9.5 -12.5c-11.333 -13.333 -28 -25.5 -50 -36.5s-57 -16.5 -105 -16.5c-62.667 0 -113.834 23.5 -153.501 70.5s-59.5 109.833 -59.5 188.5v10.5c0 3.66699 0.333008 7.16699 1 10.5
c4.66699 56 27.167 107.167 67.5 153.5s93.833 69.5 160.5 69.5c10 0 21.833 -1.5 35.5 -4.5s28.167 -8.16699 43.5 -15.5c14.667 -7.33301 28.834 -17 42.501 -29s25.5 -27 35.5 -45v1zM425 235.999c0 52 -11.167 90.832 -33.5 116.499s-46.833 42.167 -73.5 49.5
c-7.33301 2 -14.5 3.5 -21.5 4.5s-13.833 1.5 -20.5 1.5c-50.667 0 -88.667 -17.833 -114 -53.5s-38 -75.167 -38 -118.5s12.167 -83.166 36.5 -119.499s60.166 -54.5 107.499 -54.5c41.333 0 77.833 12.833 109.5 38.5s47.834 64.834 48.501 117.501v4v5
c-0.666992 1.33301 -1 2.66602 -1 3.99902v4v1z" />
    <glyph glyph-name="h" unicode="h" horiz-adv-x="520" 
d="M47 866l94.999 0.000976562v-457c19.333 23.333 39.833 42.166 61.5 56.499s48.167 21.5 79.5 21.5c47.333 0 86.833 -12.333 118.5 -37s47.5 -72.667 47.5 -144v-306h-87v307c0 34.667 -9.16699 59 -27.5 73s-43.166 21 -74.499 21c-47.333 0 -77.833 -11.5 -91.5 -34.5
s-22.5 -56.167 -26.5 -99.5v-267h-95v866v0z" />
    <glyph glyph-name="i" unicode="i" horiz-adv-x="252" 
d="M79 465h94v-465h-94v465v0zM126 740c20 -2.66699 34.332 -9.33105 42.999 -19.998s13.334 -22.667 14.001 -36v-1.5v-1.5c-0.666992 -14.667 -6.16699 -28.334 -16.5 -41.001s-23.833 -19 -40.5 -19c-19.333 0 -34 6 -44 18s-15 25.333 -15 40
c-0.666992 15.333 4 29.166 14 41.499s25 18.5 45 18.5v1z" />
    <glyph glyph-name="j" unicode="j" horiz-adv-x="252" 
d="M79 465h94v-733h-94v733v0zM126 740c20 -2.66699 34.332 -9.33105 42.999 -19.998s13.334 -22.667 14.001 -36v-1.5v-1.5c-0.666992 -14.667 -6.16699 -28.334 -16.5 -41.001s-23.833 -19 -40.5 -19c-19.333 0 -34 6 -44 18s-15 25.333 -15 40
c-0.666992 15.333 4 29.166 14 41.499s25 18.5 45 18.5v1z" />
    <glyph glyph-name="k" unicode="k" horiz-adv-x="465" 
d="M157 291l166 174h110l-189 -197l221 -268h-119l-165 213l-24 -24v-189h-94v866h94v-575v0z" />
    <glyph glyph-name="l" unicode="l" horiz-adv-x="220" 
d="M71 866h94v-866h-94v866v0z" />
    <glyph glyph-name="m" unicode="m" horiz-adv-x="764" 
d="M142 465l0.000976562 -48.001c1.33301 2.66699 4 7 8 13s9.33301 12.333 16 19c10 9.33301 23.167 18 39.5 26s37.166 12 62.499 12c6 0 12.167 -0.333008 18.5 -1s12.5 -1.66699 18.5 -3c18.667 -4 36.5 -12.167 53.5 -24.5s31.5 -31.5 43.5 -57.5l8.5 12.5
c3 4.33301 6.16699 8.5 9.5 12.5c13.333 15.333 30.666 29.333 51.999 42s47 19.334 77 20.001h9.5c3 0 5.83301 -0.333008 8.5 -1c55.333 -8 91.5 -29.333 108.5 -64s25.5 -81.667 25.5 -141v-282h-87v283c0 34.667 -6.5 63 -19.5 85s-35.167 33 -66.5 33
s-56.333 -9.16699 -75 -27.5s-28 -51.166 -28 -98.499v-275h-94v299c0 32.667 -7.16699 56.667 -21.5 72s-29.833 24.666 -46.5 27.999c-3.33301 0.666992 -6.5 1.16699 -9.5 1.5s-6.16699 0.5 -9.5 0.5h-9c-3.33301 0 -6.33301 -0.333008 -9 -1
c-21.333 -2 -40.666 -11 -57.999 -27s-26 -46.333 -26 -91v-282h-95v465h95v0z" />
    <glyph glyph-name="n" unicode="n" horiz-adv-x="520" 
d="M63 465h87.001v-63l28 26.5c8 7.66699 16 14.5 24 20.5c12 8.66699 25.167 15.167 39.5 19.5s33.5 7.83301 57.5 10.5c7.33301 0 14.666 -0.333008 21.999 -1s15 -2 23 -4c30 -7.33301 57.667 -23.333 83 -48s38 -62 38 -112v-314h-95v315
c0 23.333 -8.66699 42.333 -26 57s-36.666 23.667 -57.999 27c-2.66699 0.666992 -5.66699 1.16699 -9 1.5s-6.33301 0.5 -9 0.5h-1.5h-1.5c-26.667 -0.666992 -51.334 -11.667 -74.001 -33s-34 -55 -34 -101v-267h-94v465v0z" />
    <glyph glyph-name="o" unicode="o" horiz-adv-x="543" 
d="M24 244c0 5.33301 0.167969 11.167 0.500977 17.5s1.16602 12.833 2.49902 19.5c8 49.333 32.167 94.666 72.5 135.999s99.166 62 176.499 62c13.333 0 27.5 -1 42.5 -3s30.5 -5.33301 46.5 -10c39.333 -12 75.666 -34 108.999 -66s51.333 -79 54 -141v-3v-3v-3.5v-3.5
c0 -8 -0.5 -16.333 -1.5 -25s-2.16699 -17 -3.5 -25c-10.667 -51.333 -36.667 -98.166 -78 -140.499s-97.666 -63.5 -168.999 -63.5c-75.333 0 -130.666 15.667 -165.999 47s-59 66 -71 104c-6 18 -10 35.667 -12 53s-3 33 -3 47v1zM433.001 252.001
c0 -2.66699 -1.33203 3.66895 -3.99902 19.002s-9.33398 32.333 -20.001 51c-10.667 18 -26.5 34.333 -47.5 49s-49.5 22 -85.5 22c-59.333 0 -100.5 -16.5 -123.5 -49.5s-34.5 -69.167 -34.5 -108.5c3.33301 -45.333 17.833 -80.333 43.5 -105s53.5 -40.334 83.5 -47.001
c6 -2 12.333 -3.33301 19 -4s13 -1 19 -1c41.333 0 75.5 14.667 102.5 44s42.833 61.666 47.5 96.999c0 3.33301 0.166992 6.5 0.5 9.5s0.5 5.83301 0.5 8.5v3.5v3.5c-0.666992 1.33301 -1 2.5 -1 3.5v3.5v1z" />
    <glyph glyph-name="p" unicode="p" horiz-adv-x="559" 
d="M134 465l0.00195312 -71l16 14.5l16 14.5c21.333 18 43.666 31.833 66.999 41.5s50.666 14.5 81.999 14.5c4 0 7.83301 -0.166992 11.5 -0.5s7.5 -0.5 11.5 -0.5c47.333 -6 90.833 -30.5 130.5 -73.5s59.5 -104.833 59.5 -185.5c0 -70.667 -21 -126.5 -63 -167.5
s-94.667 -63.5 -158 -67.5c-35.333 0 -67.833 6.5 -97.5 19.5s-52.167 35.167 -67.5 66.5v-338h-95v733h87v0zM433.002 236c0 50.667 -15.333 90.833 -46 120.5s-67.667 44.5 -111 44.5c-35.333 0 -67.833 -13.833 -97.5 -41.5s-44.5 -69.167 -44.5 -124.5
c0 -46.667 11.167 -87.167 33.5 -121.5s60.833 -51.5 115.5 -51.5c44.667 0 81 16.167 109 48.5s42 68.833 42 109.5v4v4c-0.666992 0.666992 -1 1.66699 -1 3v4v1z" />
    <glyph glyph-name="q" unicode="q" horiz-adv-x="559" 
d="M409 465h94.9961v-725h-95v331c-15.333 -28 -36.5 -49.5 -63.5 -64.5s-58.167 -22.5 -93.5 -22.5c-73.333 0 -128.666 25.5 -165.999 76.5s-56.666 107.167 -57.999 168.5v3.5v2.5c-0.666992 59.333 15.833 114 49.5 164s83.834 76.667 150.501 80
c12 0 25.833 -0.833008 41.5 -2.5s31.834 -5.16699 48.501 -10.5c16.667 -6 33 -14.667 49 -26s30 -27 42 -47v72v0zM416.996 228c0 64.667 -13.668 108.831 -41.001 132.498s-57.333 36.834 -90 39.501c-3.33301 0.666992 -6.5 1 -9.5 1h-8.5
c-47.333 0 -84.166 -16.833 -110.499 -50.5s-39.5 -72.167 -39.5 -115.5c0 -5.33301 0.166992 -10.833 0.5 -16.5s0.833008 -11.167 1.5 -16.5c4 -35.333 17 -67.5 39 -96.5s58.333 -43.5 109 -43.5c51.333 0 89 16.833 113 50.5s36 71.834 36 114.501v1z" />
    <glyph glyph-name="r" unicode="r" horiz-adv-x="354" 
d="M157 465l-0.000976562 -71c18.667 27.333 38.667 47.166 60 59.499s43.666 18.833 66.999 19.5c12.667 0 25.5 -1.5 38.5 -4.5s26.167 -7.16699 39.5 -12.5l-47 -86c-6 4 -12.5 7.5 -19.5 10.5s-13.833 5.5 -20.5 7.5c-3.33301 0.666992 -6.66602 1.16699 -9.99902 1.5
s-6.66602 0.5 -9.99902 0.5c-24 0.666992 -45.5 -8.66602 -64.5 -27.999s-30.167 -48.333 -33.5 -87v-275h-94v465h94v0z" />
    <glyph glyph-name="s" unicode="s" horiz-adv-x="386" 
d="M260 362c-6.66699 11.333 -14.6641 20.5 -23.9971 27.5s-19.333 11.833 -30 14.5c-2 0 -3.83301 0.166992 -5.5 0.5s-3.5 0.5 -5.5 0.5c-12 0 -22.5 -3.66699 -31.5 -11s-13.833 -18.333 -14.5 -33v-2c0 -0.666992 0.333008 -1.33398 1 -2.00098v-2v-2
c1.33301 -16 9 -29 23 -39s30.667 -19 50 -27l18.5 -8l18.5 -8c27.333 -12.667 52.5 -28.834 75.5 -48.501s34.5 -49.5 34.5 -89.5c0 -3.33301 -0.166992 -6.66602 -0.5 -9.99902s-0.833008 -6.66602 -1.5 -9.99902c-6 -32.667 -24.833 -62.334 -56.5 -89.001
s-67.167 -40 -106.5 -40c-46 0 -80.667 8.83301 -104 26.5s-41 37.5 -53 59.5c-2 2.66699 -3.66699 5.33398 -5 8.00098l-4 8l79 40c4 -16.667 13.833 -30.167 29.5 -40.5s32.5 -16.5 50.5 -18.5h5.5h4.5c15.333 0 29.666 4 42.999 12s21.666 20.667 24.999 38v1.5
c0 0.333008 0.333008 0.833008 1 1.5v1.5v0.5c0 15.333 -8 30.166 -24 44.499s-33.667 27.166 -53 38.499c-4.66699 2.66699 -9.33398 5.16699 -14.001 7.5l-13 6.5c-0.666992 0.666992 -1.5 1.16699 -2.5 1.5s-2.16699 0.5 -3.5 0.5c-37.333 16 -64 33.333 -80 52
s-24 45.334 -24 80.001c0 3.33301 0.166992 6.5 0.5 9.5s0.833008 6.16699 1.5 9.5c4.66699 24.667 18.167 47.334 40.5 68.001s52.833 31 91.5 31c31.333 0 57.5 -5.83301 78.5 -17.5s39.5 -29.167 55.5 -52.5l-71 -39v0z" />
    <glyph glyph-name="t" unicode="t" horiz-adv-x="236" 
d="M79 465v173h86v-173h95v-87h-95v-378h-86v378h-55v87h55v0z" />
    <glyph glyph-name="u" unicode="u" horiz-adv-x="512" 
d="M362 465l95.001 -0.00195312v-268v-2.5v-1.5c-0.666992 -54.667 -16 -104.5 -46 -149.5s-80.333 -67.5 -151 -67.5c-54.667 0 -102.5 17.333 -143.5 52s-61.5 85.334 -61.5 152.001v285h95v-260c0 -8 0.5 -16.167 1.5 -24.5s2.5 -16.833 4.5 -25.5
c5.33301 -23.333 16 -44.666 32 -63.999s40 -29 72 -29c39.333 0 66.166 12.5 80.499 37.5s21.5 57.167 21.5 96.5v269v0z" />
    <glyph glyph-name="v" unicode="v" horiz-adv-x="449" 
d="M354 465h103l-237 -481l-236 481h103l133 -292l134 292v0z" />
    <glyph glyph-name="w" unicode="w" horiz-adv-x="717" 
d="M-16 465h103l133 -300l142 315l134 -307l134 292h102c-82.667 -158 -139.667 -270.667 -171 -338s-53 -112.333 -65 -135l-142 299l-134 -299l-236 473v0z" />
    <glyph glyph-name="x" unicode="x" horiz-adv-x="488" 
d="M197 252l-173 213h110l110 -150l126 150h110l-181 -213l213 -252h-118l-142 189l-150 -189h-110l205 252v0z" />
    <glyph glyph-name="y" unicode="y" horiz-adv-x="480" 
d="M205 87l-221 378h110l158 -292l142 292h110l-378 -725h-110l189 347v0z" />
    <glyph glyph-name="z" unicode="z" horiz-adv-x="496" 
d="M307 386h-260v79h449l-331 -386h307v-79h-488l323 386v0z" />
    <glyph glyph-name="braceleft" unicode="{" horiz-adv-x="331" 
d="M47 339c23.333 6.66699 41.001 22.499 53.001 47.499s18 53.167 18 84.5v206c0 2.66699 0.166992 5.5 0.5 8.5s0.5 6.16699 0.5 9.5c4 24.667 14.5 47.334 31.5 68.001s37.833 31 62.5 31l70 1v-78c-31.333 -0.666992 -50.833 -3 -58.5 -7s-11.5 -18 -11.5 -42v-235
c0 -23.333 -5.5 -45.5 -16.5 -66.5s-23.167 -38.5 -36.5 -52.5c-3.33301 -3.33301 -6.5 -6.33301 -9.5 -9s-5.83301 -5 -8.5 -7l11 -10.5c4 -3.66699 7.66699 -7.5 11 -11.5c12.667 -12.667 24 -27.5 34 -44.5s15.333 -37.167 16 -60.5v-4v-3
c-0.666992 -1.33301 -1 -2.66602 -1 -3.99902v-4v-219c0 -21.333 3.66699 -34.5 11 -39.5s18.666 -7.5 33.999 -7.5h16h17v-87h-78c-24 0 -45.833 12.167 -65.5 36.5s-29.5 54.166 -29.5 89.499v197c0 30.667 -5 57.5 -15 80.5s-28.667 40.5 -56 52.5v80v0z" />
    <glyph glyph-name="bar" unicode="|" horiz-adv-x="567" 
d="M236 866h87v-866h-87v866v0z" />
    <glyph glyph-name="braceright" unicode="}" horiz-adv-x="331" 
d="M39 795h79.002c23.333 -0.666992 43.666 -11.5 60.999 -32.5s26 -47.167 26 -78.5v-212c0 -8.66699 1 -17.834 3 -27.501s5 -19.834 9 -30.501c6 -15.333 14.333 -30.166 25 -44.499s24.334 -24.833 41.001 -31.5v-70c-18.667 -8 -32.834 -19 -42.501 -33
s-16.5 -28.667 -20.5 -44c-2.66699 -10.667 -4.5 -21 -5.5 -31s-1.5 -19 -1.5 -27v-196c0 -35.333 -8.66699 -65.166 -26 -89.499s-37.666 -36.5 -60.999 -36.5h-79v79h13h12c15.333 0 26.833 2.83301 34.5 8.5s11.5 21.167 11.5 46.5v220c0 9.33301 1 19.5 3 30.5
s5.66699 22.167 11 33.5c5.33301 12 12.666 24 21.999 36s21 23 35 33c-14.667 12 -27.834 26.5 -39.501 43.5s-20.167 34.833 -25.5 53.5c-2 6 -3.5 12.167 -4.5 18.5s-1.5 12.5 -1.5 18.5v214c0 34.667 -5.33301 55 -16 61s-31.667 9 -63 9v79v0z" />
    <glyph glyph-name="asciitilde" unicode="~" horiz-adv-x="575" 
d="M543 283c-24.667 -33.333 -44.834 -57.6699 -60.501 -73.0029s-30.5 -26.333 -44.5 -33c-8 -3.33301 -16.167 -6 -24.5 -8s-17.5 -3.66699 -27.5 -5h-2.5h-3.5c-19.333 0 -38 5 -56 15s-35.333 21.333 -52 34c-14 10.667 -28 20.667 -42 30s-28 15.333 -42 18
c-2 0 -3.83301 0.166992 -5.5 0.5s-3.5 0.5 -5.5 0.5c-14.667 0 -29.334 -6 -44.001 -18s-30 -33.333 -46 -64l-63 48c4.66699 4 10.834 11.833 18.501 23.5s16.834 23.834 27.501 36.501c14 16.667 30.5 31.834 49.5 45.501s41.167 20.5 66.5 20.5
c3.33301 0.666992 6.5 0.833984 9.5 0.500977s6.16699 -0.833008 9.5 -1.5c13.333 -4.66699 26.5 -11.334 39.5 -20.001s25.833 -18 38.5 -28c17.333 -13.333 34.5 -25.5 51.5 -36.5s33.833 -16.5 50.5 -16.5c14.667 0 29.167 5.83301 43.5 17.5s28.833 31.834 43.5 60.501
l71 -47v0z" />
    <glyph glyph-name="endash" unicode="&#xa1;" horiz-adv-x="323" 
d="M110 315h95v-535h-95v535v0zM157 496c20 -2.66699 34.332 -9.33105 42.999 -19.998s13.334 -22.667 14.001 -36v-1.5v-1.5c-0.666992 -14.667 -6.16699 -28.334 -16.5 -41.001s-23.833 -19 -40.5 -19c-19.333 0 -33.833 6 -43.5 18s-14.5 25.333 -14.5 40
c-0.666992 15.333 4 29.166 14 41.499s24.667 18.5 44 18.5v1z" />
    <glyph glyph-name="cent" unicode="&#xa2;" horiz-adv-x="575" 
d="M299 622v78.999h47v-79c16 -0.666992 30.333 -2 43 -4s25 -5 37 -9l19 -8.5c6.66699 -3 13.334 -6.5 20.001 -10.5v-110c-12 19.333 -27.833 34.5 -47.5 45.5s-43.5 16.5 -71.5 16.5v-329c28 -0.666992 52.167 4.5 72.5 15.5s38.166 26.5 53.499 46.5v-110
c-8 -6.66699 -17.667 -12 -29 -16s-23 -7 -35 -9c-11.333 -2.66699 -22.5 -4.5 -33.5 -5.5s-20.5 -1.5 -28.5 -1.5v-86h-47v87c-66.667 10.667 -117.5 38.5 -152.5 83.5s-52.5 100.833 -52.5 167.5c0 6.66699 0.333008 13.5 1 20.5s1.66699 14.167 3 21.5
c8 45.333 29 87.333 63 126s80 61.334 138 68.001v1zM299 542.999c-32.667 -4.66699 -60.666 -24.167 -83.999 -58.5s-35.333 -71.833 -36 -112.5v-1.5v-1.5c0 -32.667 9.16699 -63.5 27.5 -92.5s49.166 -50.5 92.499 -64.5v331v0z" />
    <glyph glyph-name="sterling" unicode="&#xa3;" horiz-adv-x="575" 
d="M472 496c0 46.667 -13.998 88.3369 -41.998 125.004s-63.667 55 -107 55c-51.333 0 -91.833 -13.833 -121.5 -41.5s-44.5 -61.167 -44.5 -100.5c0 -20.667 2.66699 -39.834 8 -57.501s12.333 -34.834 21 -51.501c6 -12 12.5 -23.833 19.5 -35.5l22.5 -36.5l150 1v-63
h-126c6.66699 -10.667 11.334 -22.5 14.001 -35.5s4 -26.167 4 -39.5v-2.5v-2.5c-0.666992 -17.333 -2.83398 -33.833 -6.50098 -49.5s-7.5 -27.834 -11.5 -36.501c12.667 -2 25.167 -5.5 37.5 -10.5s25.166 -10.5 38.499 -16.5c15.333 -6.66699 31 -13 47 -19
s32.667 -9 50 -9s31.333 4.66699 42 14s19.334 19.666 26.001 30.999c4 6 7.5 12.167 10.5 18.5s5.83301 11.5 8.5 15.5l71 -55c-2.66699 -6.66699 -5.83398 -13.167 -9.50098 -19.5s-7.83398 -12.833 -12.501 -19.5c-12.667 -18 -30 -34.333 -52 -49
s-49 -22.334 -81 -23.001c-12 0 -24.833 1.33301 -38.5 4s-28.167 7 -43.5 13c-2 0 -4 0.5 -6 1.5s-4 1.83301 -6 2.5c-7.33301 3.33301 -14.833 6.5 -22.5 9.5l-22.5 8.5c-17.333 6.66699 -34.5 12.167 -51.5 16.5s-33.167 6.5 -48.5 6.5c-20 0 -38.167 -4.5 -54.5 -13.5
s-29.833 -24.833 -40.5 -47.5l-86 40c15.333 26.667 33.666 50.5 54.999 71.5s55.333 33.5 102 37.5c5.33301 11.333 9 22.833 11 34.5s3 22.834 3 33.501c0.666992 16 -1 31.5 -5 46.5s-9.66699 29.167 -17 42.5l-126 1v63h95c-19.333 36 -33.666 70.333 -42.999 103
s-14 62 -14 88c0 5.33301 0.166992 10.333 0.5 15s0.833008 9.33398 1.5 14.001c0.666992 8.66699 2.33398 17.667 5.00098 27s6 18.666 10 27.999c14 33.333 39 64 75 92s84.667 42 146 42c14 0 30.667 -1.33301 50 -4s39.666 -8 60.999 -16
c32.667 -13.333 63.167 -36.5 91.5 -69.5s44.833 -81.833 49.5 -146.5l-87 -31v0z" />
    <glyph glyph-name="Idieresis" unicode="&#xa4;" horiz-adv-x="575" 
d="M71 441l-47 39.0029l63 63l47 -47c22 19.333 46.167 34 72.5 44s53.5 15 81.5 15h8.5c3 0 6.16699 -0.333008 9.5 -1c23.333 -1.33301 46.5 -6.33301 69.5 -15s44.833 -20.667 65.5 -36l39 40l63 -55l-39 -39c14 -20 25 -40.333 33 -61s13.333 -41.334 16 -62.001
c0 -4 0.166992 -8.16699 0.5 -12.5s0.5 -8.5 0.5 -12.5c0 -26.667 -4.33301 -52.334 -13 -77.001s-21 -47.334 -37 -68.001l39 -38l-55 -63l-47 39c-21.333 -18 -44.833 -31.333 -70.5 -40s-52.167 -13 -79.5 -13c-27.333 -0.666992 -54.5 3.5 -81.5 12.5
s-52.167 22.167 -75.5 39.5l-40 -38l-63 55l48 40c-14 18 -25 37 -33 57s-13.333 40 -16 60c-0.666992 4.66699 -1.16699 9.66699 -1.5 15s-0.5 10.333 -0.5 15c0 25.333 3.66699 50 11 74s18 47 32 69v1zM465 315.003c0 7.33301 -1 15.332 -3 23.999
s-4.66699 17.334 -8 26.001c-11.333 26.667 -30.833 51 -58.5 73s-62.5 33 -104.5 33c-58.667 0 -103.5 -18 -134.5 -54s-46.5 -75.667 -46.5 -119c0 -5.33301 0.333008 -10.833 1 -16.5s1.66699 -11.167 3 -16.5c7.33301 -35.333 25.5 -67.5 54.5 -96.5
s67.167 -43.5 114.5 -43.5c51.333 0 92.833 16.167 124.5 48.5s50.167 67.833 55.5 106.5c0.666992 3.33301 1.16699 6.83301 1.5 10.5s0.5 7.5 0.5 11.5v6v6v1z" />
    <glyph glyph-name="ae" unicode="&#xa5;" horiz-adv-x="575" 
d="M-8 756h110l189 -323l181 323h111l-166 -276h158v-55h-181l-55 -79v-23h236v-63h-236v-260h-103v260h-236v63h236v23l-47 79h-189v55h157l-165 276v0z" />
    <glyph glyph-name="brokenbar" unicode="&#xa6;" 
 />
    <glyph glyph-name="section" unicode="&#xa7;" horiz-adv-x="575" 
d="M378 701l-0.00390625 2.50781v3.5c0.666992 25.333 -9.5 45.166 -30.5 59.499s-44.167 21.5 -69.5 21.5h-2.5h-3.5c-18 -0.666992 -35.333 -5.5 -52 -14.5s-29.667 -23.167 -39 -42.5c-1.33301 -4.66699 -2.5 -9.83398 -3.5 -15.501s-1.5 -11.167 -1.5 -16.5
c0 -4.66699 0.333008 -9.33398 1 -14.001s1.66699 -9.33398 3 -14.001c4.66699 -16 14.5 -31.833 29.5 -47.5s37.167 -29.5 66.5 -41.5l50 -23c22 -10 45 -22 69 -36c33.333 -20 63.833 -43.333 91.5 -70s41.5 -55.334 41.5 -86.001v-2.5v-3.5
c-4 -30.667 -14.167 -59 -30.5 -85s-33.833 -48.667 -52.5 -68l-2 -2l-2 -2c13.333 -12.667 23.833 -26.334 31.5 -41.001s13.5 -29.334 17.5 -44.001c1.33301 -7.33301 2.5 -14.666 3.5 -21.999s1.5 -14.666 1.5 -21.999c0 -8.66699 -0.5 -17.5 -1.5 -26.5
s-2.83301 -17.5 -5.5 -25.5c-2 -7.33301 -4.83301 -15 -8.5 -23s-8.16699 -16.333 -13.5 -25c-14.667 -23.333 -37.167 -44.666 -67.5 -63.999s-71.166 -29 -122.499 -29c-69.333 3.33301 -119.833 21.5 -151.5 54.5s-52.167 68.833 -61.5 107.5
c-2.66699 12.667 -4.66699 25.167 -6 37.5s-2 24.166 -2 35.499l95 1c0 -40 11.5 -74.833 34.5 -104.5s55.833 -44.5 98.5 -44.5c37.333 0 67.333 9.66699 90 29s34.334 43 35.001 71c0 10 -1.83301 20.5 -5.5 31.5s-9.16699 21.833 -16.5 32.5
c-3.33301 4.66699 -7.66602 9.5 -12.999 14.5s-11.333 10.167 -18 15.5c-12 8.66699 -25.667 17.167 -41 25.5l-47 24.5c-19.333 9.33301 -38.166 18 -56.499 26l-45.5 20c-4.66699 2 -9.16699 4.16699 -13.5 6.5l-12.5 6.5c-32 17.333 -58 36.166 -78 56.499
s-30 49.5 -30 87.5c0 20 2.5 37.333 7.5 52s12.5 28.667 22.5 42c7.33301 11.333 16.5 22.666 27.5 33.999l37.5 38c-8 9.33301 -15 18.5 -21 27.5s-11 18.167 -15 27.5s-7 18.666 -9 27.999s-3 18.333 -3 27c-0.666992 46 18.666 86.333 57.999 121s86 52 140 52
c56.667 0 102.334 -14.5 137.001 -43.5s52 -65.5 52 -109.5v-6v-6l-87 1v0zM377.996 244.008c9.33301 6.66699 17.3301 13.6709 23.9971 21.0039s12.334 14.666 17.001 21.999c6 9.33301 10.167 18.833 12.5 28.5s3.5 19.167 3.5 28.5c0 12 -1.66699 23 -5 33
s-7 18.333 -11 25c-1.33301 3.33301 -3 6.16602 -5 8.49902s-3.66699 4.16602 -5 5.49902c-6 6 -14 12.167 -24 18.5s-21 12.833 -33 19.5l-31 15c-10.667 5.33301 -21.667 10.333 -33 15l-59 26.5c-19.333 8.33301 -35.333 16.166 -48 23.499
c-13.333 -7.33301 -24.666 -17.5 -33.999 -30.5s-16 -26.5 -20 -40.5c-2.66699 -6.66699 -4.5 -13.5 -5.5 -20.5s-1.5 -13.5 -1.5 -19.5s0.5 -11.5 1.5 -16.5s2.5 -9.5 4.5 -13.5c3.33301 -10.667 10.5 -20.5 21.5 -29.5s24.833 -17.833 41.5 -26.5
c20 -10 42.833 -20.5 68.5 -31.5s51.834 -23.5 78.501 -37.5l21 -12c7.33301 -4 14.333 -8.33301 21 -13v1z" />
    <glyph glyph-name="dieresis" unicode="&#xa8;" horiz-adv-x="472" 
d="M118 693c20 -2.66699 34.332 -9.33105 42.999 -19.998s13.334 -22.667 14.001 -36v-1.5v-1.5c-0.666992 -14.667 -6.16699 -28.334 -16.5 -41.001s-23.833 -19 -40.5 -19c-19.333 0 -34 6 -44 18s-15 25.333 -15 40c-0.666992 15.333 4 29.166 14 41.499s25 18.5 45 18.5
v1zM330.999 693.003c20 -2.66699 34.333 -9.33105 43 -19.998s13 -22.667 13 -36v-1.5v-1.5c-0.666992 -14.667 -6 -28.334 -16 -41.001s-23.333 -19 -40 -19c-19.333 0 -34 6 -44 18s-15 25.333 -15 40c-0.666992 15.333 4 29.166 14 41.499s25 18.5 45 18.5v1z" />
    <glyph glyph-name="copyright" unicode="&#xa9;" horiz-adv-x="803" 
d="M8 386c0 102 37.667 191.667 113 269s174 116 296 116c102.667 0 192.667 -36.833 270 -110.5s116 -165.5 116 -275.5c0 -104.667 -36.167 -197.667 -108.5 -279s-167.5 -122 -285.5 -122h-7.5h-7.5c-108.667 3.33301 -195.667 38.333 -261 105s-105.333 140 -120 220
c-1.33301 10 -2.5 20.167 -3.5 30.5s-1.5 20.5 -1.5 30.5v7.5v7.5v1zM732 394l-0.00195312 5.00098v7c0 10.667 -0.666992 21.667 -2 33s-3.66602 22.666 -6.99902 33.999c-15.333 58.667 -49.5 112.5 -102.5 161.5s-121.167 73.5 -204.5 73.5h-3.5h-3.5h-3.5h-3.5
c-94 -3.33301 -166.5 -30.333 -217.5 -81s-84.833 -106 -101.5 -166c-4 -16 -7 -31.667 -9 -47s-3 -30.333 -3 -45c2.66699 -77.333 24.167 -139.833 64.5 -187.5s84.5 -82.5 132.5 -104.5c22.667 -10.667 44.834 -18.5 66.501 -23.5s41.5 -7.5 59.5 -7.5
c92 0 166.333 26.5 223 79.5s92.667 111.5 108 175.5c2.66699 10.667 4.66699 21.5 6 32.5s2 21.833 2 32.5v13.5c0 4.33301 -0.333008 8.83301 -1 13.5v1zM542.998 457.001c-4 26.667 -17.8291 48.832 -41.4961 66.499s-49.167 26.5 -76.5 26.5
c-52.667 0 -92.334 -17.5 -119.001 -52.5s-40.334 -73.5 -41.001 -115.5v-1.5v-1.5c0 -42 12.667 -80.333 38 -115s63.333 -52 114 -52c31.333 0 59.166 8.16699 83.499 24.5s38.5 42.166 42.5 77.499l63 1c0 -45.333 -16.167 -82.166 -48.5 -110.499
s-67.833 -45.833 -106.5 -52.5l-17.5 -2c-5.66699 -0.666992 -11.167 -1 -16.5 -1c-54.667 0 -105 19 -151 57s-69 92.333 -69 163c0 60.667 15.167 109 45.5 145s63.5 61.333 99.5 76c13.333 4.66699 26.333 8.33398 39 11.001s24.667 4 36 4
c63.333 0 110.666 -15 141.999 -45s47 -64.667 47 -104l-63 1v0z" />
    <glyph glyph-name="ellipsis" unicode="&#xaa;" horiz-adv-x="331" 
d="M8 409h323v-47h-323v47v0zM323 756l-0.000976562 -284.001h-55v48c-12 -16.667 -26.5 -30.167 -43.5 -40.5s-39.5 -15.5 -67.5 -15.5c-50 0 -87 14.833 -111 44.5s-36 62.834 -36 99.501v1.5v1.5c0.666992 38 13.5 72.833 38.5 104.5s61.167 47.5 108.5 47.5
c9.33301 0 21.333 -1.83301 36 -5.5s30 -11.167 46 -22.5c5.33301 -3.33301 10.333 -7.33301 15 -12s9.33398 -9.66699 14.001 -15v48h55v0zM267.999 605.999c0 34.667 -9.33301 61.666 -28 80.999s-43.667 29 -75 29c-23.333 0 -44.833 -9.33301 -64.5 -28
s-29.5 -43.667 -29.5 -75s7.83301 -56.166 23.5 -74.499s39.167 -27.5 70.5 -27.5c5.33301 0 11 0.333008 17 1s12 1.66699 18 3c17.333 4.66699 33 13.667 47 27s21 34.333 21 63v1z" />
    <glyph glyph-name="ydieresis" unicode="&#xab;" horiz-adv-x="520" 
d="M197 559l63 -39l-158 -197l158 -189l-55 -47l-189 236l181 236v0zM394 559l55 -39l-150 -197l150 -189l-55 -40l-181 229l181 236v0z" />
    <glyph glyph-name="emdash" unicode="&#xac;" 
 />
    <glyph glyph-name="uni00AD" unicode="&#xad;" horiz-adv-x="500" 
 />
    <glyph glyph-name="registered" unicode="&#xae;" horiz-adv-x="803" 
d="M8 386c0 102 37.667 191.667 113 269s174 116 296 116c102.667 0 192.667 -36.833 270 -110.5s116 -165.5 116 -275.5c0 -104.667 -36.167 -197.667 -108.5 -279s-167.5 -122 -285.5 -122h-7.5h-7.5c-108.667 3.33301 -195.667 38.333 -261 105s-105.333 140 -120 220
c-1.33301 10 -2.5 20.167 -3.5 30.5s-1.5 20.5 -1.5 30.5v7.5v7.5v1zM732 394l-0.00195312 5.00098v7c0 10.667 -0.666992 21.667 -2 33s-3.66602 22.666 -6.99902 33.999c-15.333 58.667 -49.5 112.5 -102.5 161.5s-121.167 73.5 -204.5 73.5h-3.5h-3.5h-3.5h-3.5
c-94 -3.33301 -166.5 -30.333 -217.5 -81s-84.833 -106 -101.5 -166c-4 -16 -7 -31.667 -9 -47s-3 -30.333 -3 -45c2.66699 -77.333 24.167 -139.833 64.5 -187.5s84.5 -82.5 132.5 -104.5c22.667 -10.667 44.834 -18.5 66.501 -23.5s41.5 -7.5 59.5 -7.5
c92 0 166.333 26.5 223 79.5s92.667 111.5 108 175.5c2.66699 10.667 4.66699 21.5 6 32.5s2 21.833 2 32.5v13.5c0 4.33301 -0.333008 8.83301 -1 13.5v1zM243.998 591.001h197c47.333 -0.666992 82.833 -9.66699 106.5 -27s35.5 -45.666 35.5 -84.999
c0 -38.667 -8.83301 -67.334 -26.5 -86.001s-48.167 -32 -91.5 -40l118 -196h-79l-110 197h-87v-197h-63v434v0zM432.998 535.001h-126.001v-118h134c27.333 -0.666992 47.333 4.33301 60 15s19 23.667 19 39c0 16 -6.66699 30.5 -20 43.5s-35.666 19.5 -66.999 19.5v1z" />
    <glyph glyph-name="glyph263" unicode="&#xaf;" 
 />
    <glyph glyph-name="glyph264" unicode="&#xb0;" 
 />
    <glyph glyph-name="mu" unicode="&#xb1;" horiz-adv-x="575" 
 />
    <glyph glyph-name="uni00B2" unicode="&#xb2;" 
 />
    <glyph glyph-name="uni00B3" unicode="&#xb3;" 
 />
    <glyph glyph-name="acute" unicode="&#xb4;" horiz-adv-x="362" 
d="M197 732l79 -47l-166 -150l-47 32l134 165v0z" />
    <glyph glyph-name="oslash" unicode="&#xb5;" horiz-adv-x="512" 
 />
    <glyph glyph-name="paragraph" unicode="&#xb6;" horiz-adv-x="575" 
d="M252 283c-74.667 3.33301 -128.833 26.832 -162.5 70.499s-50.5 98.834 -50.5 165.501c4 74.667 29 131.667 75 171s102.333 61 169 65l268 1v-87h-63v-819h-86v819h-63v-819h-87v433v0z" />
    <glyph glyph-name="glyph265" unicode="&#xb7;" 
 />
    <glyph glyph-name="bullet" unicode="&#xb8;" horiz-adv-x="331" 
d="M189 732l71 -47l-150 -150l-47 32l126 165v0z" />
    <glyph glyph-name="uni00B9" unicode="&#xb9;" 
 />
    <glyph glyph-name="Agrave" unicode="&#xba;" horiz-adv-x="323" 
d="M-8 417h331v-47h-331v47v0zM0 622c0 6.66699 0.832031 14.168 2.49902 22.501s4.5 16.833 8.5 25.5c9.33301 23.333 26.5 44.666 51.5 63.999s59.167 29 102.5 29c47.333 0 86.833 -13.167 118.5 -39.5s47.5 -63.166 47.5 -110.499
c0 -39.333 -16.167 -72.833 -48.5 -100.5s-74.166 -41.5 -125.499 -41.5c-50.667 0 -89.5 15.167 -116.5 45.5s-40.5 65.166 -40.5 104.499v1zM267.999 614.001c0 34.667 -8.99902 59.5 -26.999 74.5s-38 23.833 -60 26.5c-2.66699 0.666992 -5.33398 1 -8.00098 1h-8
c-31.333 0 -56.166 -10.333 -74.499 -31s-27.5 -44.667 -27.5 -72s9.16699 -49.833 27.5 -67.5s43.166 -26.5 74.499 -26.5s56.333 9.83301 75 29.5s28 41.167 28 64.5v1z" />
    <glyph glyph-name="Ydieresis" unicode="&#xbb;" horiz-adv-x="520" 
d="M71 520l55 39l181 -236l-181 -236l-55 47l149 189l-149 197v0zM260 520l55 39l189 -236l-181 -236l-55 39l141 197l-149 197v0z" />
    <glyph glyph-name="onequarter" unicode="&#xbc;" 
 />
    <glyph glyph-name="glyph243" unicode="&#xbd;" horiz-adv-x="866" 
 />
    <glyph glyph-name="threequarters" unicode="&#xbe;" 
 />
    <glyph glyph-name="oe" unicode="&#xbf;" horiz-adv-x="457" 
d="M307 -63l94.9961 -0.00195312c0.666992 -4.66699 1 -9.16699 1 -13.5v-12.5c0.666992 -54.667 -13.833 -95.667 -43.5 -123s-62.5 -44.666 -98.5 -51.999c-6.66699 -1.33301 -13.5 -2.33301 -20.5 -3s-13.833 -1 -20.5 -1h-6h-6c-36.667 0 -67.167 9.16699 -91.5 27.5
s-42.833 38.833 -55.5 61.5c-7.33301 12.667 -12.833 25.167 -16.5 37.5s-5.5 22.833 -5.5 31.5c-0.666992 2.66699 -1 5.33398 -1 8.00098v8c0 36 10 67.333 30 94s44.667 47.334 74 62.001c2.66699 1.33301 5.5 2.5 8.5 3.5s6.16699 2.16699 9.5 3.5
c8.66699 3.33301 17.334 6.33301 26.001 9l25 8c22.667 6.66699 41.667 14.667 57 24s23 24.666 23 45.999c-2 27.333 -9.16699 47 -21.5 59s-26.166 18 -41.499 18h-1.5h-1.5c-18.667 -0.666992 -35.667 -8.16699 -51 -22.5s-23.333 -32.166 -24 -53.499v-2v-2v-2v-2l-95 1
c4.66699 44 16.5 77.333 35.5 100s39.167 39 60.5 49c14.667 6 28.834 10 42.501 12s25.167 3 34.5 3c46.667 0 83.334 -14.833 110.001 -44.5s42.334 -62.5 47.001 -98.5c0 -3.33301 0.166992 -7 0.5 -11s0.5 -7.66699 0.5 -11c0 -34.667 -10.5 -62.334 -31.5 -83.001
s-44.167 -36.667 -69.5 -48c-20.667 -9.33301 -40.167 -16.5 -58.5 -21.5s-30.833 -9.16699 -37.5 -12.5c-18.667 -8 -32.334 -19.333 -41.001 -34s-13 -30 -13 -46c0 -21.333 7.5 -40.833 22.5 -58.5s35.833 -26.5 62.5 -26.5c25.333 0 46.333 8 63 24s25 40.667 25 74v9.5
c0 3.66699 -0.333008 7.16699 -1 10.5v0zM219.996 503.998c20 -2.66699 34.332 -9.33105 42.999 -19.998s13.334 -22.667 14.001 -36v-1.5v-1.5c-0.666992 -14.667 -6.16699 -28.334 -16.5 -41.001s-23.833 -19 -40.5 -19c-19.333 0 -33.833 6 -43.5 18
s-14.5 25.333 -14.5 40c-0.666992 15.333 4 29.166 14 41.499s24.667 18.5 44 18.5v1z" />
    <glyph glyph-name="currency" unicode="&#xc0;" horiz-adv-x="701" 
d="M346 787l363 -787h-103l-86 189h-339l-87 -189h-102l354 787v0zM346 575l-133 -299h267l-134 299v0zM236 976l79 48l134 -166l-47 -31l-166 149v0z" />
    <glyph glyph-name="breve" unicode="&#xc1;" horiz-adv-x="701" 
d="M354 787l363 -787h-103l-86 189h-339l-87 -189h-102l354 787v0zM354 575l-134 -299h268l-134 299v0zM378 1024l79 -48l-166 -149l-47 31l134 166v0z" />
    <glyph glyph-name="tilde" unicode="&#xc2;" horiz-adv-x="701" 
d="M354 787l363 -787h-103l-86 189h-339l-87 -189h-102l354 787v0zM354 575l-134 -299h268l-134 299v0zM354 1008l166 -142l-63 -47l-103 94l-102 -94l-55 47l157 142v0z" />
    <glyph glyph-name="guilsinglleft" unicode="&#xc3;" horiz-adv-x="701" 
d="M346 787l363 -787h-103l-86 189h-339l-87 -189h-102l354 787v0zM346 575l-133 -299h267l-134 299v0zM496 976l47.002 -38.999c-8.66699 -25.333 -24.5 -46.166 -47.5 -62.499s-48.167 -24.5 -75.5 -24.5c-6.66699 0 -13.5 0.5 -20.5 1.5s-14.167 2.83301 -21.5 5.5
s-14.333 5.5 -21 8.5s-13.334 6.16699 -20.001 9.5l-36.5 18.5c-11.667 5.66699 -23.167 8.5 -34.5 8.5c-10 0 -20 -3.33301 -30 -10s-20.333 -18.334 -31 -35.001l-48 49c17.333 24.667 36.166 43.334 56.499 56.001s41.5 19 63.5 19c9.33301 0 18.5 -1 27.5 -3
s17.833 -5.33301 26.5 -10c2 -0.666992 3.83301 -1.5 5.5 -2.5s3.16699 -1.83301 4.5 -2.5c16 -8.66699 31.5 -16.334 46.5 -23.001s29.167 -10.334 42.5 -11.001c12 0 23.5 3.5 34.5 10.5s21.5 18.833 31.5 35.5v1z" />
    <glyph glyph-name="Adieresis" unicode="&#xc4;" horiz-adv-x="701" 
d="M346 787l363 -787h-103l-86 189h-339l-87 -189h-102l354 787v0zM346 575l-133 -299h267l-134 299v0zM244 976c20 -2 34.3311 -8.33203 42.998 -18.999s13.334 -22.667 14.001 -36v-2.5v-2.5c-1.33301 -14.667 -7.16602 -28.167 -17.499 -40.5s-23.5 -18.5 -39.5 -18.5
c-19.333 0 -34 6 -44 18s-15 25.333 -15 40c-0.666992 15.333 4 29.166 14 41.499s25 18.5 45 18.5v1zM456.998 976.001c20 -2 34.333 -8.49805 43 -19.498s13 -23.167 13 -36.5v-1.5v-1.5c-0.666992 -14.667 -6 -28.334 -16 -41.001s-23.333 -19 -40 -19
c-19.333 0 -34 6 -44 18s-15 25.333 -15 40c-0.666992 15.333 4 29.166 14 41.499s25 18.5 45 18.5v1z" />
    <glyph glyph-name="Aring" unicode="&#xc5;" horiz-adv-x="701" 
d="M346 787l363 -787h-103l-86 189h-339l-87 -189h-102l354 787v0zM346 575l-133 -299h267l-134 299v0zM252 921c0 20.667 6.83105 38 20.498 52s28.834 23.667 45.501 29c4.66699 2 9.33398 3.33301 14.001 4s9.33398 1 14.001 1c28 0 50.833 -8.5 68.5 -25.5
s26.5 -37.5 26.5 -61.5c0 -21.333 -7 -39 -21 -53s-29.667 -23.667 -47 -29c-4.66699 -1.33301 -9.33398 -2.33301 -14.001 -3s-9 -1 -13 -1c-27.333 0 -49.833 8.5 -67.5 25.5s-26.5 37.167 -26.5 60.5v1zM393.998 921c0 13.333 -4.83203 23.833 -14.499 31.5
s-20.5 11.5 -32.5 11.5c-10.667 0 -20.834 -3.5 -30.501 -10.5s-15.5 -18.167 -17.5 -33.5c0 -15.333 4.83301 -27 14.5 -35s20.5 -12 32.5 -12s23 3.83301 33 11.5s15 19.5 15 35.5v1z" />
    <glyph glyph-name="Oslash" unicode="&#xc6;" horiz-adv-x="1000" 
d="M354 748h331l39 -79h-307l95 -212h299l39 -87h-307l134 -283h307l40 -87h-410l-86 189h-347l-79 -189h-110l362 748v0zM362 559l-142 -283h268l-126 283v0z" />
    <glyph glyph-name="Ccedilla" unicode="&#xc7;" horiz-adv-x="661" 
d="M346 -8l71 -31l-102 -134l-55 23l86 142v0zM638 157v-101.999c-15.333 -10.667 -31.5 -19.667 -48.5 -27s-34.167 -13.666 -51.5 -18.999c-23.333 -6 -46.166 -10.333 -68.499 -13s-42.5 -4 -60.5 -4c-98.667 0 -178.667 31 -240 93s-101 130.333 -119 205
c-3.33301 14.667 -6 29.5 -8 44.5s-3 29.5 -3 43.5v7.5v7.5c2.66699 97.333 26.5 173 71.5 227s94.167 93.333 147.5 118c33.333 15.333 65.5 26 96.5 32s57.167 9 78.5 9c43.333 0 81.5 -4 114.5 -12s63.167 -20 90.5 -36v-109c-5.33301 4 -11 7.83301 -17 11.5
s-11.667 7.5 -17 11.5c-28.667 17.333 -57 30.166 -85 38.499s-55.333 12.5 -82 12.5c-83.333 0 -154.666 -31.333 -213.999 -94s-89 -132.334 -89 -209.001c0 -95.333 31.167 -171 93.5 -227s132.5 -84 210.5 -84c5.33301 0 10.666 0.166992 15.999 0.5
s10.666 0.833008 15.999 1.5c29.333 2.66699 58.333 10 87 22s55.667 28.667 81 50v1z" />
    <glyph glyph-name="ring" unicode="&#xc8;" horiz-adv-x="520" 
d="M63 748h409v-87h-307v-196h300v-87h-300v-284h307v-94h-409v748v0zM150 961l78 47l134 -165l-47 -32l-165 150v0z" />
    <glyph glyph-name="Eacute" unicode="&#xc9;" horiz-adv-x="520" 
d="M63 748h409v-87h-307v-196h300v-87h-300v-284h307v-94h-409v748v0zM299 1024l79 -48l-165 -149l-48 31l134 166v0z" />
    <glyph glyph-name="macron" unicode="&#xca;" horiz-adv-x="520" 
d="M63 748h409v-87h-307v-196h300v-87h-300v-284h307v-94h-409v748v0zM252 1024l165 -142l-63 -47l-102 94l-102 -94l-56 47l158 142v0z" />
    <glyph glyph-name="dotaccent" unicode="&#xcb;" horiz-adv-x="520" 
d="M94 748h410v-87h-307v-196h299v-87h-299v-284h307v-94h-410v748v0zM236 976c20 -2 34.3311 -8.33203 42.998 -18.999s13.334 -22.667 14.001 -36v-2.5v-2.5c-1.33301 -14.667 -7.16602 -28.167 -17.499 -40.5s-23.5 -18.5 -39.5 -18.5c-19.333 0 -34 6 -44 18
s-15 25.333 -15 40c-0.666992 15.333 4 29.166 14 41.499s25 18.5 45 18.5v1zM448.998 976.001c20 -2 34.333 -8.49805 43 -19.498s13 -23.167 13 -36.5v-1.5v-1.5c-0.666992 -14.667 -6 -28.334 -16 -41.001s-23.333 -19 -40 -19c-19.333 0 -34 6 -44 18s-15 25.333 -15 40
c-0.666992 15.333 4 29.166 14 41.499s25 18.5 45 18.5v1z" />
    <glyph glyph-name="caron" unicode="&#xcc;" horiz-adv-x="228" 
d="M63 748h94v-748h-94v748v0zM8 969l79 47l133 -166l-47 -31l-165 150v0z" />
    <glyph glyph-name="cedilla" unicode="&#xcd;" horiz-adv-x="228" 
d="M63 748h94v-748h-94v748v0zM142 1024l78 -48l-165 -149l-47 31l134 166v0z" />
    <glyph glyph-name="hungarumlaut" unicode="&#xce;" horiz-adv-x="228" 
d="M63 748h94v-748h-94v748v0zM110 1016l166 -142l-63 -47l-103 94l-102 -94l-55 47l157 142v0z" />
    <glyph glyph-name="ogonek" unicode="&#xcf;" horiz-adv-x="228" 
d="M63 748h94v-748h-94v748v0zM8 976c20 -2 34.333 -8.49805 43 -19.498s13 -23.167 13 -36.5v-1.5v-1.5c-0.666992 -14.667 -6 -28.334 -16 -41.001s-23.333 -19 -40 -19c-18.667 0 -33 6 -43 18s-15 25.333 -15 40c-0.666992 15.333 4 29.166 14 41.499
s24.667 18.5 44 18.5v1zM228 976.002c20 -2 34.3311 -8.33203 42.998 -18.999s13.334 -22.667 14.001 -36v-2.5v-2.5c-1.33301 -14.667 -7.16602 -28.167 -17.499 -40.5s-23.5 -18.5 -39.5 -18.5c-19.333 0 -33.833 6 -43.5 18s-14.5 25.333 -14.5 40
c-0.666992 15.333 4 29.166 14 41.499s24.667 18.5 44 18.5v1z" />
    <glyph glyph-name="glyph232" unicode="&#xd0;" horiz-adv-x="661" 
 />
    <glyph glyph-name="Ntilde" unicode="&#xd1;" horiz-adv-x="787" 
d="M55 787l575 -590v551h94v-779l-567 574v-543h-102v787v0zM535 969l47.999 -40.002c-9.33301 -25.333 -25.5 -46.166 -48.5 -62.499s-48.167 -24.5 -75.5 -24.5c-6.66699 0 -13.5 0.5 -20.5 1.5s-14.167 2.83301 -21.5 5.5s-14.333 5.5 -21 8.5
s-13.334 6.16699 -20.001 9.5l-36.5 18.5c-11.667 5.66699 -23.167 8.5 -34.5 8.5c-10 0 -20 -3.33301 -30 -10s-20.333 -18.334 -31 -35.001l-47 49c16.667 24.667 35 43.334 55 56.001s41 19 63 19c4.66699 0 9.33398 -0.166992 14.001 -0.5
s9.33398 -1.16602 14.001 -2.49902c4 -0.666992 8.33301 -2 13 -4l14 -6c1.33301 -0.666992 2.83301 -1.5 4.5 -2.5s3.16699 -1.83301 4.5 -2.5l46.5 -22.5c15 -7 29.5 -10.5 43.5 -10.5c11.333 -0.666992 22.5 2.5 33.5 9.5s21.833 19.167 32.5 36.5v1z" />
    <glyph glyph-name="scaron" unicode="&#xd2;" 
 />
    <glyph glyph-name="Lslash" unicode="&#xd3;" horiz-adv-x="827" 
d="M24 386c11.333 121.333 55.665 214.501 132.998 279.501s169.333 97.5 276 97.5c93.333 0 172.833 -29.5 238.5 -88.5s109.834 -124.167 132.501 -195.5c4.66699 -16 8.33398 -31.833 11.001 -47.5s4 -31.167 4 -46.5c0 -118 -36.833 -214.333 -110.5 -289
s-173.5 -112 -299.5 -112h-6h-6c-98.667 -0.666992 -177.5 27.666 -236.5 84.999s-98.833 120.666 -119.5 189.999c-6 18.667 -10.333 37.334 -13 56.001s-4 36.667 -4 54v8.5v7.5v1zM723.999 378.001c-5.33301 82.667 -27.498 145.334 -66.498 188.001
s-81.5 72.334 -127.5 89.001c-16.667 6.66699 -33.334 11.5 -50.001 14.5s-32.334 5.16699 -47.001 6.5h-3.5h-3.5h-3.5h-3.5c-82.667 0.666992 -152.5 -28.5 -209.5 -87.5s-87.5 -126.833 -91.5 -203.5v-4v-4v-5v-4c-0.666992 -75.333 24.666 -142.833 75.999 -202.5
s128.333 -91.5 231 -95.5h6h7c78.667 -0.666992 139.667 19.666 183 60.999s73 86.666 89 135.999c4.66699 16 8.33398 31.833 11.001 47.5s4 30.834 4 45.501v4v5c-0.666992 1.33301 -1 2.66602 -1 3.99902v4v1zM433.001 1016l79 -47l-166 -150l-47 31l134 166v0z" />
    <glyph glyph-name="lslash" unicode="&#xd4;" horiz-adv-x="827" 
d="M24 394c11.333 121.333 55.665 214.501 132.998 279.501s169.333 97.5 276 97.5c93.333 0 172.833 -29.5 238.5 -88.5s109.834 -124.167 132.501 -195.5c4.66699 -16 8.33398 -31.833 11.001 -47.5s4 -31.167 4 -46.5c0 -118.667 -36.833 -215.167 -110.5 -289.5
s-173.5 -111.5 -299.5 -111.5h-6h-6c-98.667 -0.666992 -177.5 27.666 -236.5 84.999s-98.833 120.666 -119.5 189.999c-6 18.667 -10.333 37.334 -13 56.001s-4 36.667 -4 54v8.5v7.5v1zM723.999 386.001c-5.33301 82.667 -27.498 145.334 -66.498 188.001
s-81.5 72.334 -127.5 89.001c-16.667 6.66699 -33.334 11.5 -50.001 14.5s-32.334 5.16699 -47.001 6.5h-3.5h-3.5h-3.5h-3.5c-82.667 0.666992 -152.5 -28.5 -209.5 -87.5s-87.5 -126.833 -91.5 -203.5v-4v-4v-5v-4c-0.666992 -75.333 24.666 -142.833 75.999 -202.5
s128.333 -91.5 231 -95.5h6h7c78.667 -0.666992 139.667 19.666 183 60.999s73 86.666 89 135.999c4.66699 16 8.33398 31.833 11.001 47.5s4 30.834 4 45.501v4v5c-0.666992 1.33301 -1 2.66602 -1 3.99902v4v1zM409.001 1024l166 -142l-63 -47l-103 94l-102 -94l-55 47
l157 142v0z" />
    <glyph glyph-name="guilsinglright" unicode="&#xd5;" horiz-adv-x="827" 
d="M16 394c11.333 121.333 55.8311 214.501 133.498 279.501s169.5 97.5 275.5 97.5c93.333 0 172.833 -29.5 238.5 -88.5s109.834 -124.167 132.501 -195.5c4.66699 -16 8.33398 -31.833 11.001 -47.5s4 -31.167 4 -46.5c0 -118.667 -36.667 -215.167 -110 -289.5
s-173 -111.5 -299 -111.5h-6h-6c-99.333 -0.666992 -178.5 27.666 -237.5 84.999s-98.833 120.666 -119.5 189.999c-6 18.667 -10.333 37.334 -13 56.001s-4 36.667 -4 54v8.5v7.5v1zM716.998 386.001c-6 82.667 -28.4971 145.335 -67.4971 188.002
s-81.167 72.334 -126.5 89.001c-17.333 6 -34.333 10.667 -51 14s-32.334 5.66602 -47.001 6.99902h-3.5h-3.5h-3.5h-3.5c-82.667 0.666992 -152.5 -28.5 -209.5 -87.5s-87.5 -126.833 -91.5 -203.5v-4v-4v-5v-4c-0.666992 -75.333 24.666 -142.833 75.999 -202.5
s128.333 -91.5 231 -95.5h6h7c78.667 -0.666992 139.667 19.666 183 60.999s73 86.666 89 135.999c5.33301 16.667 9.16602 33 11.499 49s3.5 31.333 3.5 46v7.5v7.5v1zM551.001 976.002l47.001 -38.999c-8.66699 -25.333 -24.5 -46.166 -47.5 -62.499
s-48.167 -24.5 -75.5 -24.5c-6.66699 0 -13.5 0.5 -20.5 1.5s-14.167 2.83301 -21.5 5.5s-14.333 5.5 -21 8.5s-13.334 6.16699 -20.001 9.5l-36.5 18.5c-11.667 5.66699 -23.167 8.5 -34.5 8.5c-10 0 -20 -3.33301 -30 -10s-20.333 -18.334 -31 -35.001l-47 49
c16.667 24.667 35.167 43.334 55.5 56.001s41.5 19 63.5 19c9.33301 0 18.5 -1 27.5 -3s17.833 -5.33301 26.5 -10c2 -0.666992 3.83301 -1.5 5.5 -2.5s3.16699 -1.83301 4.5 -2.5c16 -8.66699 31.5 -16.334 46.5 -23.001s29.167 -10.334 42.5 -11.001
c12 0 23.5 3.5 34.5 10.5s21.5 18.833 31.5 35.5v1z" />
    <glyph glyph-name="Odieresis" unicode="&#xd6;" horiz-adv-x="827" 
d="M8 386c11.333 121.333 55.8311 214.501 133.498 279.501s169.5 97.5 275.5 97.5c93.333 0 172.833 -29.5 238.5 -88.5s109.834 -124.167 132.501 -195.5c4.66699 -16 8.33398 -31.833 11.001 -47.5s4 -31.167 4 -46.5c0 -118 -36.667 -214.333 -110 -289
s-173 -112 -299 -112h-6h-6c-99.333 -0.666992 -178.5 27.666 -237.5 84.999s-98.833 120.666 -119.5 189.999c-6 18.667 -10.333 37.334 -13 56.001s-4 36.667 -4 54v8.5v7.5v1zM708.998 378.001c-6 83.333 -28.666 146.334 -67.999 189.001s-82 72.334 -128 89.001
c-16.667 6 -33.167 10.5 -49.5 13.5s-31.833 5.16699 -46.5 6.5h-3.5h-3.5h-3.5h-3.5c-82.667 0.666992 -152.5 -28.5 -209.5 -87.5s-87.5 -126.833 -91.5 -203.5v-4v-4v-5v-4c-0.666992 -75.333 24.666 -142.833 75.999 -202.5s128.333 -91.5 231 -95.5h6h7
c78.667 -0.666992 139.667 19.666 183 60.999s73 86.666 89 135.999c5.33301 16 9.33301 31.833 12 47.5s4 30.834 4 45.501v4v5c-0.666992 1.33301 -1 2.66602 -1 3.99902v4v1zM290.999 976.002c20 -2 34.3311 -8.33203 42.998 -18.999s13.334 -22.667 14.001 -36v-2.5
v-2.5c-1.33301 -14.667 -7.16602 -28.167 -17.499 -40.5s-23.5 -18.5 -39.5 -18.5c-19.333 0 -33.833 6 -43.5 18s-14.5 25.333 -14.5 40c-0.666992 15.333 4 29.166 14 41.499s24.667 18.5 44 18.5v1zM503.997 976.003c20 -2 34.3311 -8.33203 42.998 -18.999
s13.334 -22.667 14.001 -36v-2.5v-2.5c-1.33301 -14.667 -7.16602 -28.167 -17.499 -40.5s-23.5 -18.5 -39.5 -18.5c-19.333 0 -34 6 -44 18s-15 25.333 -15 40c-0.666992 15.333 4 29.166 14 41.499s25 18.5 45 18.5v1z" />
    <glyph glyph-name="multiply" unicode="&#xd7;" 
 />
    <glyph glyph-name="plusminus" unicode="&#xd8;" horiz-adv-x="827" 
d="M811 732l-110.002 -109.999c31.333 -35.333 55 -72.833 71 -112.5s25 -79.5 27 -119.5c0.666992 -3.33301 1 -6.5 1 -9.5v-9.5c0 -96.667 -34.667 -184 -104 -262s-159.666 -119.667 -270.999 -125c-34.667 0 -68 2.5 -100 7.5s-63.667 14.5 -95 28.5
c-14.667 7.33301 -29.334 15.666 -44.001 24.999s-29.334 20.333 -44.001 33l-103 -94l-47 32l110 110c-30.667 28.667 -54.167 65.167 -70.5 109.5s-24.5 90.833 -24.5 139.5c0 7.33301 0.166992 14.833 0.5 22.5s0.833008 15.5 1.5 23.5
c8.66699 86.667 45.334 166.667 110.001 240s161.334 112.666 290.001 117.999c24 0 59.333 -5.66699 106 -17s95.334 -42.666 146.001 -93.999l103 104l47 -40v0zM637.998 559.001l-425.001 -416.999c24 -23.333 52 -40.5 84 -51.5s65 -16.5 99 -16.5h14
c4.66699 0 9.66699 0.333008 15 1c50.667 4 99.334 20.167 146.001 48.5s82 68.166 106 119.499c7.33301 16 13.333 35 18 57s7 45.333 7 70c0 10 -0.333008 20 -1 30s-2 20 -4 30c-4 22 -10.667 44 -20 66s-22.333 42.667 -39 62v1zM597.997 606.002
c-23.333 20.667 -47.502 37.167 -72.502 49.5s-50.167 20.5 -75.5 24.5c-7.33301 1.33301 -14.666 2.33301 -21.999 3s-14.666 1 -21.999 1c-66.667 0 -128 -22 -184 -66s-93.333 -100.667 -112 -170l-4 -18c-1.33301 -6 -2.33301 -12 -3 -18
c-0.666992 -6.66699 -1.16699 -13 -1.5 -19s-0.5 -12 -0.5 -18c0 -34.667 5.5 -68.5 16.5 -101.5s26.833 -64.167 47.5 -93.5l433 426v0z" />
    <glyph glyph-name="Thorn" unicode="&#xd9;" horiz-adv-x="669" 
d="M520 748l94.001 -0.000976562v-472c0 -85.333 -25.333 -155.333 -76 -210s-117 -82 -199 -82h-4h-4h-4h-4c-74 6 -130.167 27 -168.5 63s-64.833 75.333 -79.5 118c-6 16.667 -10.5 33 -13.5 49s-5.16699 31 -6.5 45v489h95v-449
c0 -7.33301 0.166992 -14.166 0.5 -20.499s0.833008 -12.833 1.5 -19.5c6 -45.333 22.667 -87.333 50 -126s70.333 -59.667 129 -63c55.333 0 100.666 19 135.999 57s53 92.333 53 163v458v0zM213.001 983.999l78 47l134 -165l-47 -31l-165 149v0z" />
    <glyph glyph-name="Eth" unicode="&#xda;" horiz-adv-x="669" 
d="M520 748l94.001 -0.000976562v-472c0 -85.333 -25.333 -155.333 -76 -210s-117 -82 -199 -82h-4h-4h-4h-4c-74 6 -130.167 27 -168.5 63s-64.833 75.333 -79.5 118c-6 16.667 -10.5 33 -13.5 49s-5.16699 31 -6.5 45v489h95v-449
c0 -7.33301 0.166992 -14.166 0.5 -20.499s0.833008 -12.833 1.5 -19.5c6 -45.333 22.667 -87.333 50 -126s70.333 -59.667 129 -63c55.333 0 100.666 19 135.999 57s53 92.333 53 163v458v0zM362.001 1031l79 -47l-165 -149l-48 31l134 165v0z" />
    <glyph glyph-name="eth" unicode="&#xdb;" horiz-adv-x="669" 
d="M520 748l94.001 -0.000976562v-472c0 -85.333 -25.333 -155.333 -76 -210s-117 -82 -199 -82h-4h-4h-4h-4c-74 6 -130.167 27 -168.5 63s-64.833 75.333 -79.5 118c-6 16.667 -10.5 33 -13.5 49s-5.16699 31 -6.5 45v489h95v-449
c0 -7.33301 0.166992 -14.166 0.5 -20.499s0.833008 -12.833 1.5 -19.5c6 -45.333 22.667 -87.333 50 -126s70.333 -59.667 129 -63c55.333 0 100.666 19 135.999 57s53 92.333 53 163v458v0zM331.001 1024l165 -142l-63 -47l-102 94l-103 -94l-55 47l158 142v0z" />
    <glyph glyph-name="Udieresis" unicode="&#xdc;" horiz-adv-x="669" 
d="M520 748l94.001 -0.000976562v-472c0 -85.333 -25.333 -155.333 -76 -210s-117 -82 -199 -82h-4h-4h-4h-4c-74 6 -130.167 27 -168.5 63s-64.833 75.333 -79.5 118c-6 16.667 -10.5 33 -13.5 49s-5.16699 31 -6.5 45v489h95v-449
c0 -7.33301 0.166992 -14.166 0.5 -20.499s0.833008 -12.833 1.5 -19.5c6 -45.333 22.667 -87.333 50 -126s70.333 -59.667 129 -63c55.333 0 100.666 19 135.999 57s53 92.333 53 163v458v0zM220.001 983.999c20 -2.66699 34.332 -9.33105 42.999 -19.998
s13.334 -22.667 14.001 -36v-1.5v-1.5c-0.666992 -14.667 -6.16699 -28.334 -16.5 -41.001s-23.833 -19 -40.5 -19c-19.333 0 -33.833 6 -43.5 18s-14.5 25.333 -14.5 40c-0.666992 15.333 4 29.166 14 41.499s24.667 18.5 44 18.5v1zM441 984.002
c20 -2.66699 34.332 -9.33105 42.999 -19.998s13.334 -22.667 14.001 -36v-1.5v-1.5c-0.666992 -14.667 -6.16699 -28.334 -16.5 -41.001s-23.833 -19 -40.5 -19c-19.333 0 -34 6 -44 18s-15 25.333 -15 40c-0.666992 15.333 4 29.166 14 41.499s25 18.5 45 18.5v1z" />
    <glyph glyph-name="Yacute" unicode="&#xdd;" 
 />
    <glyph glyph-name="glyph236" unicode="&#xde;" horiz-adv-x="496" 
 />
    <glyph glyph-name="germandbls" unicode="&#xdf;" horiz-adv-x="583" 
d="M63 394l-38.999 0.00195312v78h39v174c0 10.667 0.666992 22 2 34s3.33301 24 6 36c9.33301 43.333 30.666 83 63.999 119s85.333 54 156 54c10 0 20.5 -0.833008 31.5 -2.5s21.833 -3.83398 32.5 -6.50098c36 -10.667 69.667 -31 101 -61s50 -72.333 56 -127
c0 -43.333 -8.33301 -81.833 -25 -115.5s-42.667 -58.167 -78 -73.5c47.333 -21.333 87.166 -52.166 119.499 -92.499s48.5 -88.166 48.5 -143.499c0 -4.66699 -0.166992 -9.83398 -0.5 -15.501s-0.833008 -11.167 -1.5 -16.5c-8 -62.667 -35.333 -119.167 -82 -169.5
s-119 -77.5 -217 -81.5v87c64.667 -0.666992 114.834 18.666 150.501 57.999s53.834 82.333 54.501 129v1.5v1.5c0 44 -16 84.667 -48 122s-82 59 -150 65v87c35.333 -0.666992 66.833 11.166 94.5 35.499s41.5 57.833 41.5 100.5v14.5c0 5 -0.666992 9.83301 -2 14.5
c-6.66699 34 -22.334 59.5 -47.001 76.5s-51 25.5 -79 25.5h-2.5h-3.5c-32 -1.33301 -61.333 -14 -88 -38s-40 -58.667 -40 -104v-660h-94v394v0z" />
    <glyph glyph-name="agrave" unicode="&#xe0;" horiz-adv-x="559" 
d="M417 472l95 -0.000976562v-472h-95v79c-15.333 -24.667 -34.833 -45.334 -58.5 -62.001s-59.167 -25 -106.5 -25c-66.667 0 -120.167 20.833 -160.5 62.5s-60.5 101.834 -60.5 180.501c0 78 22.667 139.333 68 184s95.333 67.334 150 68.001h1.5h1.5
c10.667 0 22.5 -1 35.5 -3s26.167 -5.33301 39.5 -10c17.333 -6 34 -14.833 50 -26.5s29.333 -27.167 40 -46.5v71v0zM417 243.999c0 38.667 -10.6689 74.501 -32.002 107.501s-57.666 49.5 -108.999 49.5c-47.333 0 -84.166 -13.833 -110.499 -41.5
s-39.5 -69.167 -39.5 -124.5c0 -46.667 13.5 -85.834 40.5 -117.501s58.167 -47.5 93.5 -47.5c51.333 0 90.333 15.167 117 45.5s40 72.833 40 127.5v1zM180.998 685l79 47l134 -165l-48 -32l-165 150v0z" />
    <glyph glyph-name="aacute" unicode="&#xe1;" horiz-adv-x="559" 
d="M417 472l95 -0.000976562v-472h-95v79c-15.333 -24.667 -34.833 -45.334 -58.5 -62.001s-59.167 -25 -106.5 -25c-66.667 0 -120.167 20.833 -160.5 62.5s-60.5 101.834 -60.5 180.501c0 78 22.667 139.333 68 184s95.333 67.334 150 68.001h1.5h1.5
c10.667 0 22.5 -1 35.5 -3s26.167 -5.33301 39.5 -10c17.333 -6 34 -14.833 50 -26.5s29.333 -27.167 40 -46.5v71v0zM417 243.999c0 38.667 -10.6689 74.501 -32.002 107.501s-57.666 49.5 -108.999 49.5c-47.333 0 -84.166 -13.833 -110.499 -41.5
s-39.5 -69.167 -39.5 -124.5c0 -46.667 13.5 -85.834 40.5 -117.501s58.167 -47.5 93.5 -47.5c51.333 0 90.333 15.167 117 45.5s40 72.833 40 127.5v1zM306.998 732l79 -47l-166 -150l-47 32l134 165v0z" />
    <glyph glyph-name="acircumflex" unicode="&#xe2;" horiz-adv-x="559" 
d="M417 472l95 -0.000976562v-472h-95v79c-15.333 -24.667 -34.833 -45.334 -58.5 -62.001s-59.167 -25 -106.5 -25c-66.667 0 -120.167 20.833 -160.5 62.5s-60.5 101.834 -60.5 180.501c0 78 22.667 139.333 68 184s95.333 67.334 150 68.001h1.5h1.5
c10.667 0 22.5 -1 35.5 -3s26.167 -5.33301 39.5 -10c17.333 -6 34 -14.833 50 -26.5s29.333 -27.167 40 -46.5v71v0zM417 243.999c0 38.667 -10.6689 74.501 -32.002 107.501s-57.666 49.5 -108.999 49.5c-47.333 0 -84.166 -13.833 -110.499 -41.5
s-39.5 -69.167 -39.5 -124.5c0 -46.667 13.5 -85.834 40.5 -117.501s58.167 -47.5 93.5 -47.5c51.333 0 90.333 15.167 117 45.5s40 72.833 40 127.5v1zM275.998 724l165 -141l-63 -48l-102 95l-103 -95l-55 48l158 141v0z" />
    <glyph glyph-name="atilde" unicode="&#xe3;" horiz-adv-x="559" 
d="M409 472l95 0.000976562v-472h-95v79c-15.333 -24.667 -34.833 -45.334 -58.5 -62.001s-59.167 -25 -106.5 -25c-66.667 0 -120 20.833 -160 62.5s-60 101.834 -60 180.501c0 79.333 23 141.166 69 185.499s96.333 66.5 151 66.5c10.667 0 22.5 -1 35.5 -3
s26.167 -5.33301 39.5 -10c17.333 -6 34 -14.833 50 -26.5s29.333 -27.167 40 -46.5v71v0zM409 244.001c0 38.667 -10.6689 74.501 -32.002 107.501s-57.666 49.5 -108.999 49.5c-47.333 0 -84.166 -13.833 -110.499 -41.5s-39.5 -69.167 -39.5 -124.5
c0 -46.667 13.5 -85.834 40.5 -117.501s58.167 -47.5 93.5 -47.5c51.333 0 90.333 15.167 117 45.5s40 72.833 40 127.5v1zM416.998 677.002l47.999 -39c-9.33301 -25.333 -25.333 -46.166 -48 -62.499s-47.667 -24.5 -75 -24.5c-3.33301 0 -6.83301 0.166992 -10.5 0.5
s-7.16699 0.833008 -10.5 1.5c-4 0 -7.83301 0.5 -11.5 1.5s-7.16699 2.16699 -10.5 3.5c-7.33301 2.66699 -14.333 5.5 -21 8.5s-13.334 6.16699 -20.001 9.5l-36.5 18.5c-11.667 5.66699 -23.167 8.5 -34.5 8.5c-10 0 -20 -3.33301 -30 -10s-20.333 -18.334 -31 -35.001
l-47 48c16.667 24.667 35 43.5 55 56.5s41 19.5 63 19.5c4.66699 0 9.33398 -0.333008 14.001 -1s9.33398 -1.66699 14.001 -3c4 -0.666992 8.33301 -2 13 -4l14 -6c1.33301 -0.666992 2.83301 -1.5 4.5 -2.5s3.5 -1.83301 5.5 -2.5l46.5 -22.5
c15 -7 29.167 -10.5 42.5 -10.5c12 0 23.5 3.5 34.5 10.5s21.5 18.833 31.5 35.5v1z" />
    <glyph glyph-name="adieresis" unicode="&#xe4;" horiz-adv-x="559" 
d="M417 472l95 -0.000976562v-472h-95v79c-15.333 -24.667 -34.833 -45.334 -58.5 -62.001s-59.167 -25 -106.5 -25c-66.667 0 -120.167 20.833 -160.5 62.5s-60.5 101.834 -60.5 180.501c0 78 22.667 139.333 68 184s95.333 67.334 150 68.001h1.5h1.5
c10.667 0 22.5 -1 35.5 -3s26.167 -5.33301 39.5 -10c17.333 -6 34 -14.833 50 -26.5s29.333 -27.167 40 -46.5v71v0zM417 243.999c0 38.667 -10.6689 74.501 -32.002 107.501s-57.666 49.5 -108.999 49.5c-47.333 0 -84.166 -13.833 -110.499 -41.5
s-39.5 -69.167 -39.5 -124.5c0 -46.667 13.5 -85.834 40.5 -117.501s58.167 -47.5 93.5 -47.5c51.333 0 90.333 15.167 117 45.5s40 72.833 40 127.5v1zM180.998 685c20 -2.66699 34.332 -9.33105 42.999 -19.998s13.334 -22.667 14.001 -36v-1.5v-1.5
c-0.666992 -14.667 -6.16699 -28.334 -16.5 -41.001s-23.833 -19 -40.5 -19c-19.333 0 -34 6 -44 18s-15 25.333 -15 40c-0.666992 15.333 4 29.166 14 41.499s25 18.5 45 18.5v1zM385.997 685.003c20 -2.66699 34.333 -9.33105 43 -19.998s13 -22.667 13 -36v-1.5v-1.5
c-0.666992 -14.667 -6 -28.334 -16 -41.001s-23.333 -19 -40 -19c-19.333 0 -34 6 -44 18s-15 25.333 -15 40c-0.666992 15.333 4 29.166 14 41.499s25 18.5 45 18.5v1z" />
    <glyph glyph-name="aring" unicode="&#xe5;" horiz-adv-x="559" 
d="M409 472l95 0.000976562v-472h-95v79c-15.333 -24.667 -34.833 -45.334 -58.5 -62.001s-59.167 -25 -106.5 -25c-66.667 0 -120 20.833 -160 62.5s-60 101.834 -60 180.501c0 79.333 23 141.166 69 185.499s96.333 66.5 151 66.5c10.667 0 22.5 -1 35.5 -3
s26.167 -5.33301 39.5 -10c17.333 -6 34 -14.833 50 -26.5s29.333 -27.167 40 -46.5v71v0zM409 244.001c0 38.667 -10.6689 74.501 -32.002 107.501s-57.666 49.5 -108.999 49.5c-47.333 0 -84.166 -13.833 -110.499 -41.5s-39.5 -69.167 -39.5 -124.5
c0 -46.667 13.5 -85.834 40.5 -117.501s58.167 -47.5 93.5 -47.5c51.333 0 90.333 15.167 117 45.5s40 72.833 40 127.5v1zM188.998 630.002c0 20.667 6.83105 37.998 20.498 51.998s28.834 23.667 45.501 29c4.66699 2 9.33398 3.33301 14.001 4s9.33398 1 14.001 1
c28 0 50.833 -8.66699 68.5 -26s26.5 -37.666 26.5 -60.999c0 -21.333 -7 -39.166 -21 -53.499s-29.667 -24.166 -47 -29.499c-4.66699 -1.33301 -9.33398 -2.33301 -14.001 -3s-9 -1 -13 -1c-27.333 0 -49.833 8.66699 -67.5 26s-26.5 37.666 -26.5 60.999v1zM330.996 630
c0 13.333 -4.83203 23.833 -14.499 31.5s-20.5 11.5 -32.5 11.5c-10.667 0 -20.834 -3.5 -30.501 -10.5s-15.5 -18.167 -17.5 -33.5c0 -15.333 4.83301 -27 14.5 -35s20.5 -12 32.5 -12s23 3.83301 33 11.5s15 19.5 15 35.5v1z" />
    <glyph glyph-name="Otilde" unicode="&#xe6;" horiz-adv-x="803" 
d="M87 465l67.999 9.50195c22 3 43.333 4.5 64 4.5c35.333 0 68.5 -5.66699 99.5 -17s58.833 -31.666 83.5 -60.999c23.333 23.333 48.166 42.166 74.499 56.499s59.166 21.5 98.499 21.5c12 0 25.5 -1.16699 40.5 -3.5s30.167 -6.16602 45.5 -11.499
c33.333 -12.667 64 -36.667 92 -72s42 -89.333 42 -162v-8.5v-9.5l-362 1c6.66699 -56 24.334 -96.333 53.001 -121s60 -37.334 94 -38.001h2.5h3.5c27.333 1.33301 53.666 9.66602 78.999 24.999s45 36 59 62l71 -47c-27.333 -39.333 -56.166 -67.833 -86.499 -85.5
s-67.166 -28.5 -110.499 -32.5c-1.33301 0 -2.83301 -0.166992 -4.5 -0.5s-3.16699 -0.5 -4.5 -0.5h-5.5h-4.5c-38.667 0 -73.667 8.16699 -105 24.5s-58 37.166 -80 62.499c-14.667 -28.667 -38.5 -49.834 -71.5 -63.501s-67.833 -20.5 -104.5 -20.5h-2.5h-3.5
c-46.667 0.666992 -89.667 13.334 -129 38.001s-59 61.334 -59 110.001v2v2v1v2c2 53.333 20.667 91.333 56 114s74 35 116 37h4.5h4.5c28 0 54.833 -3.66699 80.5 -11s45.834 -17.333 60.501 -30c0.666992 5.33301 1.16699 10.666 1.5 15.999s0.5 10.333 0.5 15
c0 41.333 -10.833 72 -32.5 92s-54.5 30 -98.5 30c-18 0 -37.833 -1.5 -59.5 -4.5s-45.167 -7.83301 -70.5 -14.5v88v0zM338.999 126.002c0 25.333 -11.833 44.332 -35.5 56.999s-50.167 19.334 -79.5 20.001c-27.333 0 -52.666 -5.83301 -75.999 -17.5
s-36 -29.167 -38 -52.5v-1.5v-0.5v-1.5v-1.5c0 -24 12.333 -42.667 37 -56s51.667 -20 81 -20c26 0 50.167 5.83301 72.5 17.5s35.166 30.167 38.499 55.5v1zM708.999 276.001c-5.33301 42 -20 72.5 -44 91.5s-50.333 28.5 -79 28.5h-6.5c-2.33301 0 -4.5 -0.333008 -6.5 -1
c-30 -2.66699 -58 -14.667 -84 -36s-42 -49.333 -48 -84l268 1v0z" />
    <glyph glyph-name="ccedilla" unicode="&#xe7;" horiz-adv-x="441" 
d="M236 -24l71 -23l-102 -134l-55 24l86 133v0zM417 126l0.000976562 -118c-18 -9.33301 -37.333 -16.333 -58 -21s-42 -7 -64 -7h-8h-8c-60 3.33301 -115 25 -165 65s-75 100.667 -75 182c0 87.333 25.667 152.333 77 195s109.333 64 174 64
c7.33301 0 14.833 -0.166992 22.5 -0.5s15.167 -1.16602 22.5 -2.49902c15.333 -2 30.666 -5.33301 45.999 -10s30 -10.334 44 -17.001v-117c-8 10 -16.5 18.667 -25.5 26s-18.167 13.333 -27.5 18c-18.667 8.66699 -36.167 13.834 -52.5 15.501s-28.5 2.5 -36.5 2.5
c-50.667 -4 -88.5 -22.833 -113.5 -56.5s-38.167 -70.167 -39.5 -109.5v-1.5v-1.5c0 -40.667 12.333 -77.834 37 -111.501s61 -50.5 109 -50.5h2h2h1h2c6.66699 0 20.667 1.5 42 4.5s44 12.833 68 29.5l12 10c4 3.33301 8 7 12 11v1z" />
    <glyph glyph-name="egrave" unicode="&#xe8;" horiz-adv-x="488" 
d="M394 150l77.999 -40c-3.33301 -7.33301 -7.16602 -14.333 -11.499 -21l-13.5 -21c-16.667 -23.333 -39.667 -44.5 -69 -63.5s-71.333 -28.5 -126 -28.5c-63.333 0 -114.5 23.667 -153.5 71s-61.167 99.666 -66.5 156.999c0 4 -0.166992 8 -0.5 12s-0.5 8 -0.5 12v7.5v7.5
c4 63.333 24.5 119.833 61.5 169.5s92.833 74.5 167.5 74.5c64 0 112.5 -18.167 145.5 -54.5s54.833 -76.166 65.5 -119.499c3.33301 -13.333 5.83301 -26.833 7.5 -40.5s2.5 -26.5 2.5 -38.5v-5.5v-5.5c0 -2 -0.166992 -3.83301 -0.5 -5.5s-0.5 -3.5 -0.5 -5.5l-354 1
c0 -44 13.833 -80.167 41.5 -108.5s61.167 -42.5 100.5 -42.5c4.66699 0 9.5 0.333008 14.5 1s10.167 1.66699 15.5 3c19.333 4.66699 37.833 14.167 55.5 28.5s31.167 32.5 40.5 54.5v1zM385.999 283c-4 34.667 -17.168 64.165 -39.501 88.498s-51.166 36.5 -86.499 36.5
c-7.33301 0 -15 -0.833008 -23 -2.5s-16 -4.16699 -24 -7.5c-19.333 -7.33301 -37.333 -20.166 -54 -38.499s-27.667 -44.166 -33 -77.499l260 1v0zM141.998 692.998l78 47l134 -165l-47 -32l-165 150v0z" />
    <glyph glyph-name="eacute" unicode="&#xe9;" horiz-adv-x="488" 
d="M386 157l79 -39.002l-12 -21c-4 -6.66699 -8.66699 -13.667 -14 -21c-16.667 -23.333 -39.667 -44.5 -69 -63.5s-71.333 -28.5 -126 -28.5c-63.333 0 -114.5 23.5 -153.5 70.5s-61.167 98.833 -66.5 155.5c0 4 -0.166992 8 -0.5 12s-0.5 8 -0.5 12v4
c0 1.33301 0.333008 3 1 5v4v4c3.33301 63.333 23.5 119.833 60.5 169.5s92.833 74.5 167.5 74.5c64 0 112.5 -18.167 145.5 -54.5s54.833 -76.166 65.5 -119.499c3.33301 -13.333 5.83301 -26.833 7.5 -40.5s2.5 -26.5 2.5 -38.5v-12c0 -4 -0.333008 -7.66699 -1 -11
l-354 1c0 -43.333 13.833 -79.166 41.5 -107.499s61.167 -42.5 100.5 -42.5c4.66699 0 9.5 0.333008 14.5 1s10.167 1.66699 15.5 3c19.333 4.66699 37.833 14 55.5 28s31.167 32 40.5 54v1zM378 290.998c-4 34.667 -17.168 64.165 -39.501 88.498
s-51.166 36.5 -86.499 36.5c-7.33301 0 -15 -0.833008 -23 -2.5s-16 -4.16699 -24 -7.5c-19.333 -7.33301 -37.333 -20.166 -54 -38.499s-27.667 -44.166 -33 -77.499l260 1v0zM259.999 739.996l79 -47l-166 -150l-47 32l134 165v0z" />
    <glyph glyph-name="ecircumflex" unicode="&#xea;" horiz-adv-x="488" 
d="M394 150l77.999 -40c-3.33301 -7.33301 -7.16602 -14.333 -11.499 -21l-13.5 -21c-16.667 -23.333 -39.667 -44.5 -69 -63.5s-71.333 -28.5 -126 -28.5c-63.333 0 -114.5 23.667 -153.5 71s-61.167 99.666 -66.5 156.999c0 4 -0.166992 8 -0.5 12s-0.5 8 -0.5 12v7.5v7.5
c4 63.333 24.5 119.833 61.5 169.5s92.833 74.5 167.5 74.5c64 0 112.5 -18.167 145.5 -54.5s54.833 -76.166 65.5 -119.499c3.33301 -13.333 5.83301 -26.833 7.5 -40.5s2.5 -26.5 2.5 -38.5v-5.5v-5.5c0 -2 -0.166992 -3.83301 -0.5 -5.5s-0.5 -3.5 -0.5 -5.5l-354 1
c0 -44 13.833 -80.167 41.5 -108.5s61.167 -42.5 100.5 -42.5c4.66699 0 9.5 0.333008 14.5 1s10.167 1.66699 15.5 3c19.333 4.66699 37.833 14.167 55.5 28.5s31.167 32.5 40.5 54.5v1zM385.999 283c-4 34.667 -17.168 64.165 -39.501 88.498s-51.166 36.5 -86.499 36.5
c-7.33301 0 -15 -0.833008 -23 -2.5s-16 -4.16699 -24 -7.5c-19.333 -7.33301 -37.333 -20.166 -54 -38.499s-27.667 -44.166 -33 -77.499l260 1v0zM235.998 731.998l166 -141l-63 -48l-103 95l-102 -95l-55 48l157 141v0z" />
    <glyph glyph-name="edieresis" unicode="&#xeb;" horiz-adv-x="488" 
d="M394 150l77.999 -40c-3.33301 -7.33301 -7.16602 -14.333 -11.499 -21l-13.5 -21c-16.667 -23.333 -39.667 -44.5 -69 -63.5s-71.333 -28.5 -126 -28.5c-63.333 0 -114.5 23.667 -153.5 71s-61.167 99.666 -66.5 156.999c0 4 -0.166992 8 -0.5 12s-0.5 8 -0.5 12v7.5v7.5
c4 63.333 24.5 119.833 61.5 169.5s92.833 74.5 167.5 74.5c64 0 112.5 -18.167 145.5 -54.5s54.833 -76.166 65.5 -119.499c3.33301 -13.333 5.83301 -26.833 7.5 -40.5s2.5 -26.5 2.5 -38.5v-5.5v-5.5c0 -2 -0.166992 -3.83301 -0.5 -5.5s-0.5 -3.5 -0.5 -5.5l-354 1
c0 -44 13.833 -80.167 41.5 -108.5s61.167 -42.5 100.5 -42.5c4.66699 0 9.5 0.333008 14.5 1s10.167 1.66699 15.5 3c19.333 4.66699 37.833 14.167 55.5 28.5s31.167 32.5 40.5 54.5v1zM385.999 283c-4 34.667 -17.168 64.165 -39.501 88.498s-51.166 36.5 -86.499 36.5
c-7.33301 0 -15 -0.833008 -23 -2.5s-16 -4.16699 -24 -7.5c-19.333 -7.33301 -37.333 -20.166 -54 -38.499s-27.667 -44.166 -33 -77.499l260 1v0zM141.998 692.998c20 -2.66699 34.333 -9.33105 43 -19.998s13 -22.667 13 -36v-1.5v-1.5
c-0.666992 -14.667 -6 -28.334 -16 -41.001s-23.333 -19 -40 -19c-19.333 0 -34 6 -44 18s-15 25.333 -15 40c-0.666992 15.333 4 29.166 14 41.499s25 18.5 45 18.5v1zM361.998 693.001c20 -2.66699 34.332 -9.33105 42.999 -19.998s13.334 -22.667 14.001 -36v-1.5v-1.5
c-0.666992 -14.667 -6.16699 -28.334 -16.5 -41.001s-23.833 -19 -40.5 -19c-19.333 0 -34 6 -44 18s-15 25.333 -15 40c-0.666992 15.333 4 29.166 14 41.499s25 18.5 45 18.5v1z" />
    <glyph glyph-name="igrave" unicode="&#xec;" horiz-adv-x="252" 
d="M126 457h94v-457h-94v457v0zM24 685l78 47l134 -165l-47 -32l-165 150v0z" />
    <glyph glyph-name="iacute" unicode="&#xed;" horiz-adv-x="252" 
d="M87 465h94v-465h-94v465v0zM157 732l79 -47l-165 -150l-47 32l133 165v0z" />
    <glyph glyph-name="icircumflex" unicode="&#xee;" horiz-adv-x="252" 
d="M79 465h94v-465h-94v465v0zM118 724l165 -141l-63 -48l-102 95l-102 -95l-55 48l157 141v0z" />
    <glyph glyph-name="idieresis" unicode="&#xef;" horiz-adv-x="252" 
d="M79 457h94v-457h-94v457v0zM16 677c20 -2.66699 34.333 -9.33105 43 -19.998s13 -22.667 13 -36v-1.5v-1.5c-0.666992 -14.667 -6 -28.334 -16 -41.001s-23.333 -19 -40 -19c-18.667 0 -33 6 -43 18s-15 25.333 -15 40c-0.666992 15.333 4 29.166 14 41.499
s24.667 18.5 44 18.5v1zM228 677.003c20 -2.66699 34.332 -9.33105 42.999 -19.998s13.334 -22.667 14.001 -36v-1.5v-1.5c-0.666992 -14.667 -6.16699 -28.334 -16.5 -41.001s-23.833 -19 -40.5 -19c-19.333 0 -33.833 6 -43.5 18s-14.5 25.333 -14.5 40
c-0.666992 15.333 4 29.166 14 41.499s24.667 18.5 44 18.5v1z" />
    <glyph glyph-name="glyph233" unicode="&#xf0;" horiz-adv-x="543" 
 />
    <glyph glyph-name="ntilde" unicode="&#xf1;" horiz-adv-x="520" 
d="M63 465h87.001v-63l28 26.5c8 7.66699 16 14.5 24 20.5c12 8.66699 25.167 15.167 39.5 19.5s33.5 7.83301 57.5 10.5c7.33301 0 14.666 -0.333008 21.999 -1s15 -2 23 -4c30 -7.33301 57.667 -23.333 83 -48s38 -62 38 -112v-314h-95v315
c0 23.333 -8.66699 42.333 -26 57s-36.666 23.667 -57.999 27c-2.66699 0.666992 -5.66699 1.16699 -9 1.5s-6.33301 0.5 -9 0.5h-1.5h-1.5c-26.667 -0.666992 -51.334 -11.667 -74.001 -33s-34 -55 -34 -101v-267h-94v465v0zM409.001 677l47.999 -39
c-9.33301 -25.333 -25.333 -46.166 -48 -62.499s-47.667 -24.5 -75 -24.5c-3.33301 0 -6.83301 0.166992 -10.5 0.5s-7.16699 0.833008 -10.5 1.5c-4 0 -7.83301 0.5 -11.5 1.5s-7.16699 2.16699 -10.5 3.5c-7.33301 2.66699 -14.333 5.5 -21 8.5
s-13.334 6.16699 -20.001 9.5l-36.5 18.5c-11.667 5.66699 -23.167 8.5 -34.5 8.5c-10 0 -20 -3.33301 -30 -10s-20.333 -18.334 -31 -35.001l-47 48c16.667 24.667 35 43.5 55 56.5s41 19.5 63 19.5c4.66699 0 9.33398 -0.333008 14.001 -1s9.33398 -1.66699 14.001 -3
c4 -0.666992 8.33301 -2 13 -4l14 -6c1.33301 -0.666992 2.83301 -1.5 4.5 -2.5s3.5 -1.83301 5.5 -2.5l46.5 -22.5c15 -7 29.167 -10.5 42.5 -10.5c12 0 23.5 3.5 34.5 10.5s21.5 18.833 31.5 35.5v1z" />
    <glyph glyph-name="ograve" unicode="&#xf2;" horiz-adv-x="543" 
d="M16 244c0 5.33301 0.169922 11.168 0.50293 17.501s1.16602 12.833 2.49902 19.5c8 49.333 32.167 94.666 72.5 135.999s99.166 62 176.499 62c13.333 0 27.5 -1 42.5 -3s30.5 -5.33301 46.5 -10c39.333 -12 75.666 -34 108.999 -66s51.333 -79 54 -141v-7.5
c0 -2.33301 0.333008 -4.83301 1 -7.5c0 -8 -0.5 -16.333 -1.5 -25s-2.16699 -17 -3.5 -25c-10.667 -50.667 -36.834 -97 -78.501 -139s-98.167 -63 -169.5 -63c-75.333 0 -130.666 15.667 -165.999 47s-59 66 -71 104c-6 18 -10 35.667 -12 53s-3 33 -3 47v1z
M425.003 252.002c0 -2.66699 -1.33203 3.66895 -3.99902 19.002s-9.33398 32.333 -20.001 51c-10.667 18 -26.5 34.333 -47.5 49s-49.5 22 -85.5 22c-58.667 0 -99.667 -16.5 -123 -49.5s-35 -69.167 -35 -108.5c3.33301 -46 18 -81.333 44 -106s54.333 -40.334 85 -47.001
c6.66699 -1.33301 13 -2.33301 19 -3s12 -1 18 -1c40.667 0 74.5 14.667 101.5 44s42.833 61.666 47.5 96.999c0 3.33301 0.166992 6.5 0.5 9.5s0.5 5.83301 0.5 8.5v3.5v3.5c-0.666992 1.33301 -1 2.5 -1 3.5v3.5v1zM173.004 685.005l79 47l134 -165l-47 -32l-166 150v0z
" />
    <glyph glyph-name="oacute" unicode="&#xf3;" horiz-adv-x="543" 
d="M16 244c0 5.33301 0.169922 11.168 0.50293 17.501s1.16602 12.833 2.49902 19.5c8 49.333 32.167 94.666 72.5 135.999s99.166 62 176.499 62c13.333 0 27.5 -1 42.5 -3s30.5 -5.33301 46.5 -10c39.333 -12 75.666 -34 108.999 -66s51.333 -79 54 -141v-7.5
c0 -2.33301 0.333008 -4.83301 1 -7.5c0 -8 -0.5 -16.333 -1.5 -25s-2.16699 -17 -3.5 -25c-10.667 -50.667 -36.834 -97 -78.501 -139s-98.167 -63 -169.5 -63c-75.333 0 -130.666 15.667 -165.999 47s-59 66 -71 104c-6 18 -10 35.667 -12 53s-3 33 -3 47v1z
M425.003 252.002c0 -2.66699 -1.33203 3.66895 -3.99902 19.002s-9.33398 32.333 -20.001 51c-10.667 18 -26.5 34.333 -47.5 49s-49.5 22 -85.5 22c-58.667 0 -99.667 -16.5 -123 -49.5s-35 -69.167 -35 -108.5c3.33301 -46 18 -81.333 44 -106s54.333 -40.334 85 -47.001
c6.66699 -1.33301 13 -2.33301 19 -3s12 -1 18 -1c40.667 0 74.5 14.667 101.5 44s42.833 61.666 47.5 96.999c0 3.33301 0.166992 6.5 0.5 9.5s0.5 5.83301 0.5 8.5v3.5v3.5c-0.666992 1.33301 -1 2.5 -1 3.5v3.5v1zM291.004 740.005l79 -47l-165 -150l-48 32l134 165v0z
" />
    <glyph glyph-name="ocircumflex" unicode="&#xf4;" horiz-adv-x="543" 
d="M16 244c0 5.33301 0.169922 11.168 0.50293 17.501s1.16602 12.833 2.49902 19.5c8 49.333 32.167 94.666 72.5 135.999s99.166 62 176.499 62c13.333 0 27.5 -1 42.5 -3s30.5 -5.33301 46.5 -10c39.333 -12 75.666 -34 108.999 -66s51.333 -79 54 -141v-7.5
c0 -2.33301 0.333008 -4.83301 1 -7.5c0 -8 -0.5 -16.333 -1.5 -25s-2.16699 -17 -3.5 -25c-10.667 -50.667 -36.834 -97 -78.501 -139s-98.167 -63 -169.5 -63c-75.333 0 -130.666 15.667 -165.999 47s-59 66 -71 104c-6 18 -10 35.667 -12 53s-3 33 -3 47v1z
M425.003 252.002c0 -2.66699 -1.33203 3.66895 -3.99902 19.002s-9.33398 32.333 -20.001 51c-10.667 18 -26.5 34.333 -47.5 49s-49.5 22 -85.5 22c-58.667 0 -99.667 -16.5 -123 -49.5s-35 -69.167 -35 -108.5c3.33301 -46 18 -81.333 44 -106s54.333 -40.334 85 -47.001
c6.66699 -1.33301 13 -2.33301 19 -3s12 -1 18 -1c40.667 0 74.5 14.667 101.5 44s42.833 61.666 47.5 96.999c0 3.33301 0.166992 6.5 0.5 9.5s0.5 5.83301 0.5 8.5v3.5v3.5c-0.666992 1.33301 -1 2.5 -1 3.5v3.5v1zM268.004 740.005l165 -142l-63 -47l-102 95l-103 -95
l-55 47l158 142v0z" />
    <glyph glyph-name="otilde" unicode="&#xf5;" horiz-adv-x="543" 
d="M8 236c0 5.33301 0.333984 11.168 1.00098 17.501l2 19.5c8 49.333 32.333 94.666 73 135.999s99.334 62 176.001 62c13.333 0 27.5 -1 42.5 -3s30.5 -5.33301 46.5 -10c39.333 -12 75.666 -34 108.999 -66s51.333 -79 54 -141v-7.5c0 -2.33301 0.333008 -4.83301 1 -7.5
c0 -8 -0.5 -16.333 -1.5 -25s-2.16699 -17 -3.5 -25c-10.667 -50.667 -36.834 -97 -78.501 -139s-98.167 -63 -169.5 -63c-74.667 0 -129.667 15.5 -165 46.5s-59.333 65.5 -72 103.5c-6 18 -10 35.833 -12 53.5s-3 33.5 -3 47.5v1zM417.001 244.002
c0 -2.66699 -1.33203 3.66895 -3.99902 19.002s-9.33398 32.333 -20.001 51c-10.667 18 -26.5 34.333 -47.5 49s-49.5 22 -85.5 22c-58.667 0 -99.667 -16.5 -123 -49.5s-35 -69.167 -35 -108.5c3.33301 -46 18 -81.333 44 -106s54.333 -40.334 85 -47.001
c6.66699 -1.33301 13 -2.33301 19 -3s12 -1 18 -1c40.667 0 74.5 14.667 101.5 44s42.833 61.666 47.5 96.999c0 3.33301 0.166992 6.5 0.5 9.5s0.5 5.83301 0.5 8.5v3.5v3.5c-0.666992 1.33301 -1 2.5 -1 3.5v3.5v1zM402.002 685.005l46.998 -39.001
c-9.33301 -25.333 -25.333 -46.166 -48 -62.499s-47.667 -24.5 -75 -24.5c-3.33301 0 -6.83301 0.166992 -10.5 0.5s-7.16699 0.833008 -10.5 1.5c-4 0 -7.83301 0.5 -11.5 1.5s-7.16699 2.16699 -10.5 3.5c-7.33301 2.66699 -14.333 5.5 -21 8.5
s-13.334 6.16699 -20.001 9.5l-36 18.5c-11.333 5.66699 -22.666 8.5 -33.999 8.5c-5.33301 0 -10.5 -0.833008 -15.5 -2.5s-10.167 -4.16699 -15.5 -7.5s-10.5 -8 -15.5 -14s-10.167 -13 -15.5 -21l-47 48c16.667 24.667 35 43.5 55 56.5s41 19.5 63 19.5
c4.66699 0 9.33398 -0.333008 14.001 -1s9.33398 -1.66699 14.001 -3c4 -0.666992 8.33301 -2 13 -4l14 -6c1.33301 -0.666992 2.83301 -1.5 4.5 -2.5s3.5 -1.83301 5.5 -2.5l46.5 -22.5c15 -7 29.5 -10.5 43.5 -10.5c11.333 0 22.5 3.5 33.5 10.5s21.833 18.833 32.5 35.5
v1z" />
    <glyph glyph-name="odieresis" unicode="&#xf6;" horiz-adv-x="543" 
d="M16 236c0 5.33301 0.170898 11.168 0.503906 17.501s1.16602 12.833 2.49902 19.5c8 49.333 32.167 94.666 72.5 135.999s99.166 62 176.499 62c13.333 0 27.5 -1 42.5 -3s30.5 -5.33301 46.5 -10c39.333 -12 75.666 -34 108.999 -66s51.333 -79 54 -141v-7.5
c0 -2.33301 0.333008 -4.83301 1 -7.5c0 -8 -0.5 -16.333 -1.5 -25s-2.16699 -17 -3.5 -25c-10.667 -50.667 -36.834 -97 -78.501 -139s-98.167 -63 -169.5 -63c-74.667 0 -129.667 15.5 -165 46.5s-59.333 65.5 -72 103.5c-6 18 -10 35.833 -12 53.5s-3 33.5 -3 47.5v1z
M425.004 244.002c0 -2.66699 -1.33203 3.66895 -3.99902 19.002s-9.33398 32.333 -20.001 51c-10.667 18 -26.5 34.333 -47.5 49s-49.5 22 -85.5 22c-58.667 0 -99.667 -16.5 -123 -49.5s-35 -69.167 -35 -108.5c3.33301 -46 18 -81.333 44 -106s54.333 -40.334 85 -47.001
c6.66699 -1.33301 13 -2.33301 19 -3s12 -1 18 -1c40.667 0 74.5 14.667 101.5 44s42.833 61.666 47.5 96.999c0 3.33301 0.166992 6.5 0.5 9.5s0.5 5.83301 0.5 8.5v3.5v3.5c-0.666992 1.33301 -1 2.5 -1 3.5v3.5v1zM165.005 693.005
c20 -2.66699 34.332 -9.33105 42.999 -19.998s13.334 -22.667 14.001 -36v-1.5v-1.5c-0.666992 -14.667 -6.16699 -28.334 -16.5 -41.001s-23.833 -19 -40.5 -19c-19.333 0 -33.833 6 -43.5 18s-14.5 25.333 -14.5 40c-0.666992 15.333 4 29.166 14 41.499
s24.667 18.5 44 18.5v1zM386.004 693.008c20 -2.66699 34.333 -9.33105 43 -19.998s13 -22.667 13 -36v-1.5v-1.5c-0.666992 -14.667 -6 -28.334 -16 -41.001s-23.333 -19 -40 -19c-19.333 0 -34 6 -44 18s-15 25.333 -15 40c-0.666992 15.333 4 29.166 14 41.499
s25 18.5 45 18.5v1z" />
    <glyph glyph-name="Aacute" unicode="&#xf7;" 
 />
    <glyph glyph-name="OE" unicode="&#xf8;" horiz-adv-x="543" 
d="M535 457l-69.999 -71.001c20 -18 35 -40 45 -66s15.667 -53 17 -81v-7.5v-6.5c0 -19.333 -2 -38.333 -6 -57s-9.66699 -35.667 -17 -51c-22 -41.333 -54.5 -73.666 -97.5 -96.999s-88.167 -35.333 -135.5 -36h-2.5h-2.5c-28 0 -55.5 4.33301 -82.5 13
s-51.5 22.334 -73.5 41.001l-63 -62l-31 32l63 63c-24 31.333 -40 60.166 -48 86.499s-12 49.5 -12 69.5c0 9.33301 0.5 18 1.5 26s2.16699 15.333 3.5 22c16 64.667 43.5 111.5 82.5 140.5s80.167 46.167 123.5 51.5c6.66699 1.33301 13 2.16602 19 2.49902s12 0.5 18 0.5
c35.333 0 68.166 -5.16699 98.499 -15.5s52.833 -23.166 67.5 -38.499l71 72l31 -31v0zM402.001 330.999l-229 -228.999c15.333 -12 31 -20.667 47 -26s32.333 -8 49 -8c42 -0.666992 79.833 14.166 113.5 44.499s50.5 68.5 50.5 114.5c0 16 -2.33301 32.667 -7 50
s-12.667 35 -24 53v1zM370.001 362c-16.667 10.667 -33.501 18.666 -50.501 23.999s-33.167 8.33301 -48.5 9c-44.667 0 -82.167 -17.667 -112.5 -53s-45.833 -74.666 -46.5 -117.999c0 -16 2.33301 -31.833 7 -47.5s12.334 -30.167 23.001 -43.5l228 229v0z" />
    <glyph glyph-name="ugrave" unicode="&#xf9;" horiz-adv-x="512" 
d="M362 465l95.001 -0.00195312v-268v-2.5v-1.5c-0.666992 -54.667 -16 -104.5 -46 -149.5s-80.333 -67.5 -151 -67.5c-54.667 0 -102.5 17.333 -143.5 52s-61.5 85.334 -61.5 152.001v285h95v-260c0 -8 0.5 -16.167 1.5 -24.5s2.5 -16.833 4.5 -25.5
c5.33301 -23.333 16 -44.666 32 -63.999s40 -29 72 -29c39.333 0 66.166 12.5 80.499 37.5s21.5 57.167 21.5 96.5v269v0zM142.001 684.998l78 47l134 -165l-47 -32l-165 150v0z" />
    <glyph glyph-name="uacute" unicode="&#xfa;" horiz-adv-x="512" 
d="M362 465l95.001 -0.00195312v-268v-2.5v-1.5c-0.666992 -54.667 -16 -104.5 -46 -149.5s-80.333 -67.5 -151 -67.5c-54.667 0 -102.5 17.333 -143.5 52s-61.5 85.334 -61.5 152.001v285h95v-260c0 -8 0.5 -16.167 1.5 -24.5s2.5 -16.833 4.5 -25.5
c5.33301 -23.333 16 -44.666 32 -63.999s40 -29 72 -29c39.333 0 66.166 12.5 80.499 37.5s21.5 57.167 21.5 96.5v269v0zM276.001 731.998l78 -47l-165 -150l-47 32l134 165v0z" />
    <glyph glyph-name="ucircumflex" unicode="&#xfb;" horiz-adv-x="512" 
d="M362 465l95.001 -0.00195312v-268v-2.5v-1.5c-0.666992 -54.667 -16 -104.5 -46 -149.5s-80.333 -67.5 -151 -67.5c-54.667 0 -102.5 17.333 -143.5 52s-61.5 85.334 -61.5 152.001v285h95v-260c0 -8 0.5 -16.167 1.5 -24.5s2.5 -16.833 4.5 -25.5
c5.33301 -23.333 16 -44.666 32 -63.999s40 -29 72 -29c39.333 0 66.166 12.5 80.499 37.5s21.5 57.167 21.5 96.5v269v0zM236.001 723.998l166 -141l-63 -48l-103 95l-102 -95l-55 48l157 141v0z" />
    <glyph glyph-name="udieresis" unicode="&#xfc;" horiz-adv-x="512" 
d="M362 465l95.001 -0.00195312v-268v-2.5v-1.5c-0.666992 -54.667 -16 -104.5 -46 -149.5s-80.333 -67.5 -151 -67.5c-54.667 0 -102.5 17.333 -143.5 52s-61.5 85.334 -61.5 152.001v285h95v-260c0 -8 0.5 -16.167 1.5 -24.5s2.5 -16.833 4.5 -25.5
c5.33301 -23.333 16 -44.666 32 -63.999s40 -29 72 -29c39.333 0 66.166 12.5 80.499 37.5s21.5 57.167 21.5 96.5v269v0zM142.001 684.998c20 -2.66699 34.333 -9.33105 43 -19.998s13 -22.667 13 -36v-1.5v-1.5c-0.666992 -14.667 -6 -28.334 -16 -41.001
s-23.333 -19 -40 -19c-19.333 0 -34 6 -44 18s-15 25.333 -15 40c-0.666992 15.333 4 29.166 14 41.499s25 18.5 45 18.5v1zM354.001 685.001c20 -2.66699 34.332 -9.33105 42.999 -19.998s13.334 -22.667 14.001 -36v-1.5v-1.5
c-0.666992 -14.667 -6.16699 -28.334 -16.5 -41.001s-23.833 -19 -40.5 -19c-19.333 0 -33.833 6 -43.5 18s-14.5 25.333 -14.5 40c-0.666992 15.333 4 29.166 14 41.499s24.667 18.5 44 18.5v1z" />
    <glyph glyph-name="yacute" unicode="&#xfd;" 
 />
    <glyph glyph-name="glyph237" unicode="&#xfe;" horiz-adv-x="559" 
 />
    <glyph glyph-name="Egrave" unicode="&#xff;" horiz-adv-x="480" 
d="M205 87l-221 378h110l158 -292l142 292h110l-378 -725h-110l189 347v0zM126 693c20 -2.66699 34.332 -9.33105 42.999 -19.998s13.334 -22.667 14.001 -36v-1.5v-1.5c-0.666992 -14.667 -6.16699 -28.334 -16.5 -41.001s-23.833 -19 -40.5 -19c-19.333 0 -34 6 -44 18
s-15 25.333 -15 40c-0.666992 15.333 4 29.166 14 41.499s25 18.5 45 18.5v1zM338.999 693.003c20 -2.66699 34.333 -9.33105 43 -19.998s13 -22.667 13 -36v-1.5v-1.5c-0.666992 -14.667 -6 -28.334 -16 -41.001s-23.333 -19 -40 -19c-19.333 0 -34 6 -44 18
s-15 25.333 -15 40c-0.666992 15.333 4 29.166 14 41.499s25 18.5 45 18.5v1z" />
    <glyph glyph-name="Abreve" unicode="&#x102;" 
 />
    <glyph glyph-name="abreve" unicode="&#x103;" 
 />
    <glyph glyph-name="Aogonek" unicode="&#x104;" 
 />
    <glyph glyph-name="aogonek" unicode="&#x105;" 
 />
    <glyph glyph-name="Cacute" unicode="&#x106;" 
 />
    <glyph glyph-name="cacute" unicode="&#x107;" 
 />
    <glyph glyph-name="Ccaron" unicode="&#x10c;" 
 />
    <glyph glyph-name="ccaron" unicode="&#x10d;" 
 />
    <glyph glyph-name="Dcaron" unicode="&#x10e;" 
 />
    <glyph glyph-name="dcaron" unicode="&#x10f;" 
 />
    <glyph glyph-name="Dcroat" unicode="&#x110;" 
 />
    <glyph glyph-name="dcroat" unicode="&#x111;" 
 />
    <glyph glyph-name="Eogonek" unicode="&#x118;" 
 />
    <glyph glyph-name="eogonek" unicode="&#x119;" 
 />
    <glyph glyph-name="Ecaron" unicode="&#x11a;" 
 />
    <glyph glyph-name="ecaron" unicode="&#x11b;" 
 />
    <glyph glyph-name="Gbreve" unicode="&#x11e;" 
 />
    <glyph glyph-name="gbreve" unicode="&#x11f;" 
 />
    <glyph glyph-name="Idotaccent" unicode="&#x130;" 
 />
    <glyph glyph-name="thorn" unicode="&#x131;" horiz-adv-x="252" 
d="M71 465h94v-465h-94v465v0z" />
    <glyph glyph-name="Lacute" unicode="&#x139;" 
 />
    <glyph glyph-name="lacute" unicode="&#x13a;" 
 />
    <glyph glyph-name="Lcaron" unicode="&#x13d;" 
 />
    <glyph glyph-name="lcaron" unicode="&#x13e;" 
 />
    <glyph glyph-name="Ldot" unicode="&#x13f;" 
 />
    <glyph glyph-name="ldot" unicode="&#x140;" 
 />
    <glyph glyph-name="glyph225" unicode="&#x141;" horiz-adv-x="500" 
 />
    <glyph glyph-name="glyph226" unicode="&#x142;" horiz-adv-x="500" 
 />
    <glyph glyph-name="Nacute" unicode="&#x143;" 
 />
    <glyph glyph-name="nacute" unicode="&#x144;" 
 />
    <glyph glyph-name="Ncaron" unicode="&#x147;" 
 />
    <glyph glyph-name="ncaron" unicode="&#x148;" 
 />
    <glyph glyph-name="Ohungarumlaut" unicode="&#x150;" 
 />
    <glyph glyph-name="ohungarumlaut" unicode="&#x151;" 
 />
    <glyph glyph-name="fi" unicode="&#x152;" horiz-adv-x="1142" 
d="M717 748l393.003 -0.000976562v-87h-307v-212h299v-87h-299v-283h307v-87h-393v126c-20 -24 -41 -44.333 -63 -61s-44.333 -30.667 -67 -42c-30 -14 -59.667 -24 -89 -30s-56.333 -9 -81 -9h-6h-6c-104.667 -0.666992 -195.667 36.333 -273 111
s-116 166.334 -116 275.001v7.5v7.5c7.33301 119.333 48.666 213.5 123.999 282.5s162.333 103.5 261 103.5h4h4h4h4c59.333 0 111.166 -11 155.499 -33s79.5 -46.333 105.5 -73c9.33301 -9.33301 17.166 -18.333 23.499 -27s11.5 -17 15.5 -25v143v0zM717.003 385.999
c0 86 -31.5 155.833 -94.5 209.5s-134.167 80.5 -213.5 80.5c-90.667 0 -162 -30 -214 -90s-80 -126 -84 -198c-0.666992 -3.33301 -1 -6.5 -1 -9.5v-9.5c0 -82.667 27.5 -154.5 82.5 -215.5s129.833 -91.5 224.5 -91.5h6h6c79.333 -0.666992 143 23.833 191 73.5
s78.333 104.167 91 163.5c2.66699 10 4.5 20 5.5 30s1.5 20 1.5 30v6.5v6.5c0 2 -0.166992 4.16699 -0.5 6.5s-0.5 4.5 -0.5 6.5v1z" />
    <glyph glyph-name="fl" unicode="&#x153;" horiz-adv-x="898" 
d="M811 150l71 -48.002c-12.667 -25.333 -29.834 -47.166 -51.501 -65.499s-44.5 -32.5 -68.5 -42.5c-13.333 -6 -26.666 -10.5 -39.999 -13.5s-25.666 -4.5 -36.999 -4.5c-2.66699 -0.666992 -5.5 -1 -8.5 -1h-9.5c-6.66699 0 -13.5 0.333008 -20.5 1
s-14.167 1.66699 -21.5 3c-32 5.33301 -62.5 17 -91.5 35s-49.5 42 -61.5 72c-14.667 -22 -32.667 -41.167 -54 -57.5s-43.333 -28.5 -66 -36.5c-12.667 -5.33301 -25.5 -9.33301 -38.5 -12s-25.5 -4 -37.5 -4c-62.667 0 -120.667 18.667 -174 56s-82 97.333 -86 180v3.5
v3.5v3v3c-0.666992 65.333 14.833 116.333 46.5 153s66.167 63 103.5 79c18.667 8 36.834 13.667 54.501 17s33.5 5 47.5 5c4.66699 0 9.5 -0.166992 14.5 -0.5s9.83301 -0.833008 14.5 -1.5c38.667 -4 75 -16 109 -36s56 -44 66 -72c0.666992 0.666992 1 1.16699 1 1.5
s0.333008 0.833008 1 1.5c23.333 34.667 49.833 61.167 79.5 79.5s73.5 27.5 131.5 27.5c54.667 -2.66699 96.167 -18.834 124.5 -48.501s47.833 -62.167 58.5 -97.5c5.33301 -17.333 9.16602 -34.166 11.499 -50.499s3.5 -31.166 3.5 -44.499v-14
c0 -4.66699 -0.333008 -8.66699 -1 -12l-354 1c5.33301 -57.333 21.166 -97.333 47.499 -120s54.833 -34 85.5 -34h7.5c2.33301 0 4.83301 0.333008 7.5 1c29.333 2.66699 56.833 12.667 82.5 30s43.167 37 52.5 59v1zM433 227.998v2.49707c0 1 0.333008 1.83301 1 2.5v3.5
v2.5c0 5.33301 -0.333008 10.833 -1 16.5s-2 11.5 -4 17.5c-8 30 -25.333 57.5 -52 82.5s-60.334 37.5 -101.001 37.5c-39.333 0 -75.833 -13.5 -109.5 -40.5s-52.5 -66.167 -56.5 -117.5v-2.5v-3.5c-0.666992 -0.666992 -1 -1.5 -1 -2.5v-3.5
c0 -6 0.333008 -11.833 1 -17.5s2 -11.5 4 -17.5c8 -30 25 -57.667 51 -83s57.667 -39.666 95 -42.999c2 -0.666992 4.16699 -1 6.5 -1h7.5c6.66699 0 13.334 0.5 20.001 1.5s13.667 2.5 21 4.5c29.333 8.66699 56.333 26.334 81 53.001s37 62.334 37 107.001v1z
M787 282.995c-6.66699 40 -21.668 69.167 -45.001 87.5s-48.666 27.5 -75.999 27.5h-3.5h-3.5c-30 -2 -57.833 -13.333 -83.5 -34s-41.5 -48 -47.5 -82l259 1v0z" />
    <glyph glyph-name="Racute" unicode="&#x154;" 
 />
    <glyph glyph-name="racute" unicode="&#x155;" 
 />
    <glyph glyph-name="Rcaron" unicode="&#x158;" 
 />
    <glyph glyph-name="rcaron" unicode="&#x159;" 
 />
    <glyph glyph-name="Sacute" unicode="&#x15a;" 
 />
    <glyph glyph-name="sacute" unicode="&#x15b;" 
 />
    <glyph glyph-name="Scedilla" unicode="&#x15e;" 
 />
    <glyph glyph-name="scedilla" unicode="&#x15f;" 
 />
    <glyph glyph-name="glyph227" unicode="&#x160;" horiz-adv-x="500" 
 />
    <glyph glyph-name="glyph228" unicode="&#x161;" horiz-adv-x="500" 
 />
    <glyph glyph-name="Tcommaaccent" unicode="&#x162;" 
 />
    <glyph glyph-name="tcommaaccent" unicode="&#x163;" 
 />
    <glyph glyph-name="Tcaron" unicode="&#x164;" 
 />
    <glyph glyph-name="tcaron" unicode="&#x165;" 
 />
    <glyph glyph-name="Uring" unicode="&#x16e;" 
 />
    <glyph glyph-name="uring" unicode="&#x16f;" 
 />
    <glyph glyph-name="Uhungarumlaut" unicode="&#x170;" 
 />
    <glyph glyph-name="uhungarumlaut" unicode="&#x171;" 
 />
    <glyph glyph-name="Iacute" unicode="&#x178;" horiz-adv-x="500" 
 />
    <glyph glyph-name="Zacute" unicode="&#x179;" 
 />
    <glyph glyph-name="zacute" unicode="&#x17a;" 
 />
    <glyph glyph-name="Zdotaccent" unicode="&#x17b;" 
 />
    <glyph glyph-name="zdotaccent" unicode="&#x17c;" 
 />
    <glyph glyph-name="Zcaron" unicode="&#x17d;" 
 />
    <glyph glyph-name="zcaron" unicode="&#x17e;" 
 />
    <glyph glyph-name="quotedblright" unicode="&#x192;" horiz-adv-x="339" 
d="M236 866h87v-866h-87v866v0z" />
    <glyph glyph-name="uni02BA" unicode="&#x2ba;" horiz-adv-x="500" 
 />
    <glyph glyph-name="arrowright" unicode="&#x2c6;" horiz-adv-x="512" 
d="M402 685l46.998 -39.001c-9.33301 -25.333 -25.333 -46.166 -48 -62.499s-47.667 -24.5 -75 -24.5c-3.33301 0 -6.83301 0.166992 -10.5 0.5s-7.16699 0.833008 -10.5 1.5c-4 0 -7.83301 0.5 -11.5 1.5s-7.16699 2.16699 -10.5 3.5c-7.33301 2.66699 -14.333 5.5 -21 8.5
s-13.334 6.16699 -20.001 9.5l-36 18.5c-11.333 5.66699 -22.666 8.5 -33.999 8.5c-5.33301 0 -10.5 -0.833008 -15.5 -2.5s-10.167 -4.16699 -15.5 -7.5s-10.5 -8 -15.5 -14s-10.167 -13 -15.5 -21l-47 48c16.667 24.667 35 43.5 55 56.5s41 19.5 63 19.5
c4.66699 0 9.33398 -0.333008 14.001 -1s9.33398 -1.66699 14.001 -3c4 -0.666992 8.33301 -2 13 -4l14 -6c1.33301 -0.666992 2.83301 -1.5 4.5 -2.5s3.5 -1.83301 5.5 -2.5l46.5 -22.5c15 -7 29.5 -10.5 43.5 -10.5c11.333 0 22.5 3.5 33.5 10.5s21.833 18.833 32.5 35.5
v1z" />
    <glyph glyph-name="glyph224" unicode="&#x2c7;" horiz-adv-x="500" 
 />
    <glyph glyph-name="house" unicode="&#x2c9;" horiz-adv-x="500" 
 />
    <glyph glyph-name="endash" unicode="&#x2d8;" horiz-adv-x="488" 
d="M339 693h78c-11.333 -46.667 -33.5 -81.834 -66.5 -105.501s-68.167 -36.167 -105.5 -37.5h-2h-2c-38.667 0 -75 11.833 -109 35.5s-57 59.167 -69 106.5l79 1c5.33301 -27.333 17.333 -47.166 36 -59.499s38.667 -18.5 60 -18.5h2h1
c22.667 0.666992 43.667 7.66699 63 21s31 32 35 56v1z" />
    <glyph glyph-name="sfthyphen" unicode="&#x2d9;" horiz-adv-x="500" 
 />
    <glyph glyph-name="filledbox" unicode="&#x2da;" horiz-adv-x="362" 
d="M87 638c0 20.667 6.83105 37.834 20.498 51.501s28.834 23.167 45.501 28.5c4.66699 2 9.33398 3.33301 14.001 4s9.33398 1 14.001 1c27.333 0 50 -8.5 68 -25.5s27 -37.167 27 -60.5c0 -21.333 -6.83301 -39 -20.5 -53s-28.834 -23.667 -45.501 -29
c-4.66699 -1.33301 -9.5 -2.5 -14.5 -3.5s-9.83301 -1.5 -14.5 -1.5c-27.333 0 -49.833 8.66699 -67.5 26s-26.5 37.666 -26.5 60.999v1zM227.998 638c0 13.333 -4.83203 23.833 -14.499 31.5s-20.167 11.5 -31.5 11.5c-10.667 0 -20.834 -3.5 -30.501 -10.5
s-15.5 -18.167 -17.5 -33.5c0 -15.333 4.83301 -27 14.5 -35s20.167 -12 31.5 -12c12 0 23 3.83301 33 11.5s15 19.5 15 35.5v1z" />
    <glyph glyph-name="glyph223" unicode="&#x2db;" horiz-adv-x="500" 
 />
    <glyph glyph-name="onehalf" unicode="&#x2dc;" horiz-adv-x="472" 
d="M236 724l166 -141l-63 -48l-103 95l-102 -95l-55 48l157 141v0z" />
    <glyph glyph-name="Gamma" unicode="&#x393;" 
 />
    <glyph glyph-name="Theta" unicode="&#x398;" 
 />
    <glyph glyph-name="exclamdown" unicode="&#x3a3;" 
 />
    <glyph glyph-name="Phi" unicode="&#x3a6;" 
 />
    <glyph glyph-name="Atilde" unicode="&#x3a9;" 
 />
    <glyph glyph-name="alpha" unicode="&#x3b1;" 
 />
    <glyph glyph-name="delta" unicode="&#x3b4;" 
 />
    <glyph glyph-name="epsilon" unicode="&#x3b5;" 
 />
    <glyph glyph-name="guillemotleft" unicode="&#x3c0;" 
 />
    <glyph glyph-name="sigma" unicode="&#x3c3;" 
 />
    <glyph glyph-name="tau" unicode="&#x3c4;" 
 />
    <glyph glyph-name="phi" unicode="&#x3c6;" 
 />
    <glyph glyph-name="glyph259" unicode="&#x2013;" horiz-adv-x="504" 
d="M-8 362h504v-79h-504v79v0z" />
    <glyph glyph-name="periodcentered" unicode="&#x2014;" horiz-adv-x="1000" 
d="M-8 283v79h992v-79h-992v0z" />
    <glyph glyph-name="underscoredbl" unicode="&#x2017;" 
 />
    <glyph glyph-name="Acircumflex" unicode="&#x2018;" horiz-adv-x="276" 
d="M189 764l55 -24l-110 -275l-79 31l134 268v0z" />
    <glyph glyph-name="Ecircumflex" unicode="&#x2019;" horiz-adv-x="276" 
d="M126 772l79 -32l-134 -268l-55 24l110 276v0z" />
    <glyph glyph-name="Ugrave" unicode="&#x201a;" 
 />
    <glyph glyph-name="quotedblbase" unicode="&#x201c;" horiz-adv-x="441" 
d="M197 764l55 -24l-110 -275l-79 31l134 268v0zM370 764l55 -24l-118 -275l-79 31l142 268v0z" />
    <glyph glyph-name="perthousand" unicode="&#x201d;" horiz-adv-x="441" 
d="M126 772l87 -32l-134 -275l-55 23l102 284v0zM299 772l79 -32l-134 -268l-55 16l110 284v0z" />
    <glyph glyph-name="dotlessi" unicode="&#x201e;" horiz-adv-x="441" 
d="M157 118l87 -31l-134 -268l-55 24l102 275v0zM323 118l86 -31l-133 -268l-56 24l103 275v0z" />
    <glyph glyph-name="dagger" unicode="&#x2020;" horiz-adv-x="575" 
d="M252 598v276h94v-276h182v-86h-182v-591h-94v591h-181v86h181v0z" />
    <glyph glyph-name="Uacute" unicode="&#x2021;" horiz-adv-x="575" 
d="M244 630v244h95v-244h181v-87h-181v-118h181v-86h-181v-426h-95v426h-181v86h181v118h-181v87h181v0z" />
    <glyph glyph-name="glyph262" unicode="&#x2022;" horiz-adv-x="575" 
d="M150 315c20 -2.66699 34.333 -9.33105 43 -19.998s13 -22.667 13 -36v-1.5v-1.5c-0.666992 -14.667 -6 -28.334 -16 -41.001s-23.333 -19 -40 -19c-19.333 0 -34 6 -44 18s-15 25.333 -15 40c-0.666992 15.333 4 29.166 14 41.499s25 18.5 45 18.5v1z" />
    <glyph glyph-name="fraction" unicode="&#x2026;" horiz-adv-x="1000" 
d="M165 102c20 -2.66699 34.332 -9.33301 42.999 -20s13.334 -22.667 14.001 -36v-1.5v-1.5c-0.666992 -14.667 -6.16699 -28.167 -16.5 -40.5s-23.833 -18.5 -40.5 -18.5c-19.333 0 -33.833 5.83301 -43.5 17.5s-14.5 24.834 -14.5 39.501
c-0.666992 15.333 4 29.166 14 41.499s24.667 18.5 44 18.5v1zM503.999 102.001c20 -2.66699 34.332 -9.33301 42.999 -20s13.334 -22.667 14.001 -36v-1.5v-1.5c-0.666992 -14.667 -6.16699 -28.167 -16.5 -40.5s-23.833 -18.5 -40.5 -18.5c-19.333 0 -34 5.83301 -44 17.5
s-15 24.834 -15 39.501c-0.666992 15.333 4 29.166 14 41.499s25 18.5 45 18.5v1zM842.998 102.002c20 -2.66699 34.333 -9.33301 43 -20s13 -22.667 13 -36v-1.5v-1.5c-0.666992 -14.667 -6 -28.167 -16 -40.5s-23.333 -18.5 -40 -18.5c-19.333 0 -34 5.83301 -44 17.5
s-15 24.834 -15 39.501c-0.666992 15.333 4 29.166 14 41.499s25 18.5 45 18.5v1z" />
    <glyph glyph-name="circumflex" unicode="&#x2030;" horiz-adv-x="1110" 
d="M559 772l55 -24l-449 -772l-47 24l441 772v0zM346 157c0 58.667 18.5 102.166 55.5 130.499s79.167 42.5 126.5 42.5h1.5h1.5c42.667 -0.666992 81.667 -14.5 117 -41.5s53 -73.5 53 -139.5c0 -47.333 -16 -86.666 -48 -117.999s-73.667 -47 -125 -47s-94.5 15 -129.5 45
s-52.5 72.333 -52.5 127v1zM638 156.999c0 34 -8.33203 59.1689 -24.999 75.502s-35 26.833 -55 31.5l-15.5 2c-5 0.666992 -9.83301 1 -14.5 1c-39.333 0 -67.666 -11.833 -84.999 -35.5s-26 -51.167 -26 -82.5c0 -2.66699 0.166992 -5.33398 0.5 -8.00098
s0.5 -5.33398 0.5 -8.00098c3.33301 -22 13.666 -42 30.999 -60s43.666 -27 78.999 -27s62.5 10.5 81.5 31.5s28.5 47.167 28.5 78.5v1zM740.001 157.001c0 58.667 18.5 102.166 55.5 130.499s78.833 42.5 125.5 42.5c43.333 0 83 -13.5 119 -40.5s54 -73.833 54 -140.5
c0 -47.333 -16 -86.666 -48 -117.999s-73.667 -47 -125 -47c-50.667 0 -93.5 15 -128.5 45s-52.5 72.333 -52.5 127v1zM1031 157c0 34.667 -8.66602 60.1699 -25.999 76.5029s-36.333 26.5 -57 30.5c-4.66699 1.33301 -9.16699 2.16602 -13.5 2.49902
s-8.83301 0.5 -13.5 0.5c-38.667 0 -66.667 -11.833 -84 -35.5s-26 -51.167 -26 -82.5c0 -2.66699 0.166992 -5.33398 0.5 -8.00098s0.5 -5.33398 0.5 -8.00098c3.33301 -22 13.666 -42 30.999 -60s43.333 -27 78 -27c35.333 0 62.5 10.5 81.5 31.5s28.5 47.167 28.5 78.5v1
zM16.002 606.003c0 58.667 18.333 102.168 55 130.501s78.667 42.5 126 42.5h1.5h1.5c42.667 -0.666992 81.667 -14.667 117 -42s53 -74 53 -140c0 -46.667 -16 -85.834 -48 -117.501s-73.667 -47.5 -125 -47.5s-94.333 15.167 -129 45.5s-52 72.833 -52 127.5v1z
M307.002 606.004c0 34 -8.33301 59.166 -25 75.499s-35 26.833 -55 31.5l-15.5 2c-5 0.666992 -9.83301 1 -14.5 1c-39.333 0 -67.5 -12 -84.5 -36s-25.5 -51.667 -25.5 -83c0 -2.66699 0.166992 -5.66699 0.5 -9s0.833008 -6.33301 1.5 -9
c3.33301 -21.333 13.5 -40.666 30.5 -57.999s42.833 -26 77.5 -26c35.333 0 62.5 10.5 81.5 31.5s28.5 47.167 28.5 78.5v1z" />
    <glyph glyph-name="Igrave" unicode="&#x2039;" horiz-adv-x="339" 
d="M205 559l63 -39l-150 -197l150 -189l-55 -47l-189 228l181 244v0z" />
    <glyph glyph-name="Oacute" unicode="&#x203a;" horiz-adv-x="339" 
d="M213 323l-150 197l63 39l181 -236l-181 -236l-55 39l142 197v0z" />
    <glyph glyph-name="exclamdbl" unicode="&#x203c;" 
 />
    <glyph glyph-name="uni207F" unicode="&#x207f;" 
 />
    <glyph glyph-name="franc" unicode="&#x20a3;" 
 />
    <glyph glyph-name="peseta" unicode="&#x20a7;" 
 />
    <glyph glyph-name="trademark" unicode="&#x2122;" horiz-adv-x="937" 
d="M24 772h346v-63h-142v-363h-63v363h-141v63v0zM449 772h102l118 -307l126 307h103v-426h-63v355l-142 -355h-39l-142 355v-355h-63v426v0z" />
    <glyph glyph-name="arrowleft" unicode="&#x2190;" 
 />
    <glyph glyph-name="arrowup" unicode="&#x2191;" 
 />
    <glyph glyph-name="glyph257" unicode="&#x2192;" horiz-adv-x="500" 
 />
    <glyph glyph-name="arrowdown" unicode="&#x2193;" 
 />
    <glyph glyph-name="arrowboth" unicode="&#x2194;" 
 />
    <glyph glyph-name="arrowupdn" unicode="&#x2195;" 
 />
    <glyph glyph-name="arrowupdnbse" unicode="&#x21a8;" 
 />
    <glyph glyph-name="questiondown" unicode="&#x2202;" 
 />
    <glyph glyph-name="quoteright" unicode="&#x2206;" 
 />
    <glyph glyph-name="florin" unicode="&#x220f;" 
 />
    <glyph glyph-name="minus" unicode="&#x2212;" 
 />
    <glyph glyph-name="Icircumflex" unicode="&#x2215;" horiz-adv-x="500" 
 />
    <glyph glyph-name="Ucircumflex" unicode="&#x2219;" 
d="M102 378c0 50 15.834 90.999 47.501 122.999s66.5 52.333 104.5 61c6 1.33301 12.167 2.33301 18.5 3s12.5 1 18.5 1c51.333 0 97 -17.333 137 -52s60 -77.667 60 -129c0 -62.667 -20 -111.167 -60 -145.5s-85.667 -51.5 -137 -51.5
c-50.667 0 -94.834 18.833 -132.501 56.5s-56.5 81.834 -56.5 132.501v1z" />
    <glyph glyph-name="quotedblleft" unicode="&#x221a;" 
 />
    <glyph glyph-name="yen" unicode="&#x221e;" 
 />
    <glyph glyph-name="orthogonal" unicode="&#x221f;" 
 />
    <glyph glyph-name="intersection" unicode="&#x2229;" 
 />
    <glyph glyph-name="guillemotright" unicode="&#x222b;" 
 />
    <glyph glyph-name="quoteleft" unicode="&#x2248;" 
 />
    <glyph glyph-name="AE" unicode="&#x2260;" 
 />
    <glyph glyph-name="equivalence" unicode="&#x2261;" 
 />
    <glyph glyph-name="ordfeminine" unicode="&#x2264;" 
 />
    <glyph glyph-name="ordmasculine" unicode="&#x2265;" 
 />
    <glyph glyph-name="glyph258" unicode="&#x2302;" 
 />
    <glyph glyph-name="revlogicalnot" unicode="&#x2310;" 
 />
    <glyph glyph-name="integraltp" unicode="&#x2320;" 
 />
    <glyph glyph-name="integralbt" unicode="&#x2321;" 
 />
    <glyph glyph-name="SF100000" unicode="&#x2500;" 
 />
    <glyph glyph-name="SF110000" unicode="&#x2502;" 
 />
    <glyph glyph-name="SF010000" unicode="&#x250c;" 
 />
    <glyph glyph-name="SF030000" unicode="&#x2510;" 
 />
    <glyph glyph-name="SF020000" unicode="&#x2514;" 
 />
    <glyph glyph-name="SF040000" unicode="&#x2518;" 
 />
    <glyph glyph-name="SF080000" unicode="&#x251c;" 
 />
    <glyph glyph-name="SF090000" unicode="&#x2524;" 
 />
    <glyph glyph-name="SF060000" unicode="&#x252c;" 
 />
    <glyph glyph-name="SF070000" unicode="&#x2534;" 
 />
    <glyph glyph-name="SF050000" unicode="&#x253c;" 
 />
    <glyph glyph-name="SF430000" unicode="&#x2550;" 
 />
    <glyph glyph-name="SF240000" unicode="&#x2551;" 
 />
    <glyph glyph-name="SF510000" unicode="&#x2552;" 
 />
    <glyph glyph-name="SF520000" unicode="&#x2553;" 
 />
    <glyph glyph-name="SF390000" unicode="&#x2554;" 
 />
    <glyph glyph-name="SF220000" unicode="&#x2555;" 
 />
    <glyph glyph-name="SF210000" unicode="&#x2556;" 
 />
    <glyph glyph-name="SF250000" unicode="&#x2557;" 
 />
    <glyph glyph-name="SF500000" unicode="&#x2558;" 
 />
    <glyph glyph-name="SF490000" unicode="&#x2559;" 
 />
    <glyph glyph-name="SF380000" unicode="&#x255a;" 
 />
    <glyph glyph-name="SF280000" unicode="&#x255b;" 
 />
    <glyph glyph-name="SF270000" unicode="&#x255c;" 
 />
    <glyph glyph-name="SF260000" unicode="&#x255d;" 
 />
    <glyph glyph-name="SF360000" unicode="&#x255e;" 
 />
    <glyph glyph-name="SF370000" unicode="&#x255f;" 
 />
    <glyph glyph-name="SF420000" unicode="&#x2560;" 
 />
    <glyph glyph-name="SF190000" unicode="&#x2561;" 
 />
    <glyph glyph-name="SF200000" unicode="&#x2562;" 
 />
    <glyph glyph-name="SF230000" unicode="&#x2563;" 
 />
    <glyph glyph-name="SF470000" unicode="&#x2564;" 
 />
    <glyph glyph-name="SF480000" unicode="&#x2565;" 
 />
    <glyph glyph-name="SF410000" unicode="&#x2566;" 
 />
    <glyph glyph-name="SF450000" unicode="&#x2567;" 
 />
    <glyph glyph-name="SF460000" unicode="&#x2568;" 
 />
    <glyph glyph-name="SF400000" unicode="&#x2569;" 
 />
    <glyph glyph-name="SF540000" unicode="&#x256a;" 
 />
    <glyph glyph-name="SF530000" unicode="&#x256b;" 
 />
    <glyph glyph-name="SF440000" unicode="&#x256c;" 
 />
    <glyph glyph-name="upblock" unicode="&#x2580;" 
 />
    <glyph glyph-name="dnblock" unicode="&#x2584;" 
 />
    <glyph glyph-name="block" unicode="&#x2588;" 
 />
    <glyph glyph-name="lfblock" unicode="&#x258c;" 
 />
    <glyph glyph-name="rtblock" unicode="&#x2590;" 
 />
    <glyph glyph-name="ltshade" unicode="&#x2591;" 
 />
    <glyph glyph-name="shade" unicode="&#x2592;" 
 />
    <glyph glyph-name="dkshade" unicode="&#x2593;" 
 />
    <glyph glyph-name="glyph261" unicode="&#x25a0;" horiz-adv-x="500" 
 />
    <glyph glyph-name="filledrect" unicode="&#x25ac;" 
 />
    <glyph glyph-name="triagup" unicode="&#x25b2;" 
 />
    <glyph glyph-name="triagrt" unicode="&#x25ba;" 
 />
    <glyph glyph-name="triagdn" unicode="&#x25bc;" 
 />
    <glyph glyph-name="triaglf" unicode="&#x25c4;" 
 />
    <glyph glyph-name="Edieresis" unicode="&#x25ca;" 
 />
    <glyph glyph-name="circle" unicode="&#x25cb;" 
 />
    <glyph glyph-name="invbullet" unicode="&#x25d8;" 
 />
    <glyph glyph-name="invcircle" unicode="&#x25d9;" 
 />
    <glyph glyph-name="smileface" unicode="&#x263a;" 
 />
    <glyph glyph-name="invsmileface" unicode="&#x263b;" 
 />
    <glyph glyph-name="sun" unicode="&#x263c;" 
 />
    <glyph glyph-name="female" unicode="&#x2640;" 
 />
    <glyph glyph-name="male" unicode="&#x2642;" 
 />
    <glyph glyph-name="spade" unicode="&#x2660;" 
 />
    <glyph glyph-name="club" unicode="&#x2663;" 
 />
    <glyph glyph-name="heart" unicode="&#x2665;" 
 />
    <glyph glyph-name="diamond" unicode="&#x2666;" 
 />
    <glyph glyph-name="musicalnote" unicode="&#x266a;" 
 />
    <glyph glyph-name="musicalnotedbl" unicode="&#x266b;" 
 />
    <glyph glyph-name="Scaron" unicode="&#xf000;" 
 />
    <glyph glyph-name="Ocircumflex" unicode="&#xf001;" horiz-adv-x="512" 
d="M79 378l-39.999 0.000976562v79h40v228c0 9.33301 0.333008 21.666 1 36.999s2.66699 31 6 47c6 26.667 18.5 51.167 37.5 73.5s49.833 33.5 92.5 33.5c11.333 0 23 -1 35 -3s25.333 -4.66699 40 -8v-93c-10.667 6 -21 10.667 -31 14s-19.667 5 -29 5
c-18.667 0 -34.334 -7.33301 -47.001 -22s-19 -37.667 -19 -69v-243h126v-79h-126v-386h-86v386v0zM346.001 465.001h95v-465h-95v465v0zM394.001 740.001c20 -2.66699 34.333 -9.33105 43 -19.998s13 -22.667 13 -36v-1.5v-1.5c-0.666992 -14.667 -6 -28.334 -16 -41.001
s-23.333 -19 -40 -19c-19.333 0 -34 6 -44 18s-15 25.333 -15 40c-0.666992 15.333 4 29.166 14 41.499s25 18.5 45 18.5v1z" />
    <glyph glyph-name="Ograve" unicode="&#xf002;" horiz-adv-x="496" 
d="M79 378l-39.999 0.000976562v79h40v228c0 9.33301 0.333008 21.666 1 36.999s2.66699 31 6 47c6 26.667 18.5 51.167 37.5 73.5s49.833 33.5 92.5 33.5c11.333 0 23 -1 35 -3s25.333 -4.66699 40 -8v-93c-10.667 6 -21 10.667 -31 14s-19.667 5 -29 5
c-18.667 0 -34.334 -7.33301 -47.001 -22s-19 -37.667 -19 -69v-243h126v-79h-126v-386h-86v386v0zM339.001 866.001h86v-866h-86v866v0z" />
    <glyph glyph-name="glyph1" horiz-adv-x="0" 
 />
    <glyph glyph-name="glyph2" 
 />
    <glyph glyph-name="degree" horiz-adv-x="500" 
 />
    <glyph glyph-name="bullet" horiz-adv-x="575" 
d="M150 315c20 -2.66699 34.333 -9.33105 43 -19.998s13 -22.667 13 -36v-1.5v-1.5c-0.666992 -14.667 -6 -28.334 -16 -41.001s-23.333 -19 -40 -19c-19.333 0 -34 6 -44 18s-15 25.333 -15 40c-0.666992 15.333 4 29.166 14 41.499s25 18.5 45 18.5v1z" />
    <glyph glyph-name="daggerdbl" horiz-adv-x="504" 
d="M-8 362h504v-79h-504v79v0z" />
    </font>
</defs>
</svg>
